<svg width="30" height="30" viewBox="0 0 30 30" fill="none" xmlns="http://www.w3.org/2000/svg">
<path fill-rule="evenodd" clip-rule="evenodd" d="M25.3711 6.50391C25.3711 8.44242 23.794 10.0195 21.8555 10.0195C19.917 10.0195 18.3398 8.44242 18.3398 6.50391V3.51562C18.3398 1.57711 19.917 0 21.8555 0C23.794 0 25.3711 1.57711 25.3711 3.51562V3.86719H28.8281C29.4754 3.86719 30 4.39184 30 5.03906C30 5.68629 29.4754 6.21094 28.8281 6.21094H25.3711V6.50391ZM21.8555 2.34375C21.2093 2.34375 20.6836 2.86945 20.6836 3.51562V6.50391C20.6836 7.15008 21.2093 7.67578 21.8555 7.67578C22.5016 7.67578 23.0273 7.15008 23.0273 6.50391V3.51562C23.0273 2.86945 22.5016 2.34375 21.8555 2.34375Z" fill="#222222"/>
<path d="M14.8242 6.21094H1.17188C0.524647 6.21094 0 5.68629 0 5.03906C0 4.39184 0.524647 3.86719 1.17188 3.86719H14.8242C15.4714 3.86719 15.9961 4.39184 15.9961 5.03906C15.9961 5.68629 15.4714 6.21094 14.8242 6.21094Z" fill="#222222"/>
<path d="M14.8215 23.8477H1.17188C0.524647 23.8477 0 24.3723 0 25.0195C0 25.6668 0.524647 26.1914 1.17188 26.1914H14.8215C15.4688 26.1914 15.9934 25.6668 15.9934 25.0195C15.9934 24.3723 15.4688 23.8477 14.8215 23.8477Z" fill="#222222"/>
<path d="M4.51172 16.1647H1.17188C0.524647 16.1647 0 15.6401 0 14.9929C0 14.3456 0.524647 13.821 1.17188 13.821H4.51172C5.15895 13.821 5.68359 14.3456 5.68359 14.9929C5.68359 15.6401 5.15895 16.1647 4.51172 16.1647Z" fill="#222222"/>
<path fill-rule="evenodd" clip-rule="evenodd" d="M28.8281 13.821H15.0586V13.418C15.0586 11.4795 13.4815 9.90234 11.543 9.90234C9.60445 9.90234 8.02734 11.4795 8.02734 13.418V16.4648C8.02734 18.4034 9.60445 19.9805 11.543 19.9805C13.4815 19.9805 15.0586 18.4034 15.0586 16.4648V16.1647H28.8281C29.4754 16.1647 30 15.6401 30 14.9929C30 14.3457 29.4754 13.821 28.8281 13.821ZM12.7148 16.4648C12.7148 17.111 12.1891 17.6367 11.543 17.6367C10.8968 17.6367 10.3711 17.111 10.3711 16.4648V13.418C10.3711 12.7718 10.8968 12.2461 11.543 12.2461C12.1891 12.2461 12.7148 12.7718 12.7148 13.418V16.4648Z" fill="#222222"/>
<path fill-rule="evenodd" clip-rule="evenodd" d="M25.3684 23.8477H28.8281C29.4754 23.8477 30 24.3723 30 25.0195C30 25.6668 29.4754 26.1914 28.8281 26.1914H25.3684V26.4844C25.3684 28.4229 23.7913 30 21.8528 30C19.9143 30 18.3371 28.4229 18.3371 26.4844V23.4961C18.3371 21.5576 19.9143 19.9805 21.8528 19.9805C23.7913 19.9805 25.3684 21.5576 25.3684 23.4961V23.8477ZM21.8528 27.6562C22.4989 27.6562 23.0246 27.1305 23.0246 26.4844V23.4961C23.0246 22.8499 22.4989 22.3242 21.8528 22.3242C21.2066 22.3242 20.6809 22.8499 20.6809 23.4961V26.4844C20.6809 27.1305 21.2066 27.6562 21.8528 27.6562Z" fill="#222222"/>
</svg>
