
<svg width="24" height="25" viewBox="0 0 24 25" fill="none" xmlns="http://www.w3.org/2000/svg">
<path d="M14.211 16.6499C14.4887 16.6419 14.8046 16.6056 15.1269 16.5242C15.1651 16.5146 15.2044 16.5043 15.2447 16.4931C15.4934 16.4242 15.7623 16.3228 16.0393 16.1529C16.1067 16.1126 16.173 16.0692 16.2377 16.0227L16.2354 16.0217C16.4324 15.8784 16.632 15.697 16.8301 15.4652C16.9114 15.3701 17.0508 15.1691 17.1301 15.0131C16.9469 14.819 16.6684 14.6594 16.4072 14.519L16.3793 14.504C16.2583 14.4387 16.0393 14.3206 15.8348 14.2407C15.8131 14.2322 15.7904 14.2238 15.7672 14.2153C15.5906 14.1502 15.3843 14.0741 15.3635 13.8643C15.3474 13.7025 15.4294 13.6014 15.5271 13.4809C15.5506 13.452 15.575 13.422 15.5991 13.3897C15.8843 13.0088 16.1526 12.4894 16.1041 11.786C16.0565 11.0957 15.6148 10.5596 14.8753 10.4769C14.7897 10.4673 14.7063 10.4632 14.6253 10.4643C14.5444 10.4632 14.4609 10.4673 14.3753 10.4769C13.6358 10.5596 13.1941 11.0957 13.1465 11.786C13.098 12.4894 13.3664 13.0088 13.6515 13.3897C13.6756 13.422 13.7 13.452 13.7235 13.4809C13.8212 13.6014 13.9032 13.7025 13.8872 13.8643C13.8663 14.0741 13.66 14.1502 13.4835 14.2153C13.4603 14.2238 13.4375 14.2322 13.4158 14.2407C13.2113 14.3206 12.9924 14.4387 12.8713 14.504L12.8435 14.519C12.4558 14.7273 12.0301 14.978 11.9345 15.3208C11.8176 15.7402 11.7545 16.2666 11.7661 16.6499H12.4281C12.6126 16.6499 12.8026 16.6518 12.9961 16.6537C13.3933 16.6576 13.8048 16.6616 14.211 16.6499Z"/>
<path fill-rule="evenodd" clip-rule="evenodd" d="M24 14.2289L23.9993 14.6187L23.9981 14.9178L23.9964 15.1698L23.9942 15.3918L23.9916 15.5925L23.9884 15.7769L23.9848 15.9484L23.9807 16.1094L23.9762 16.2615L23.9711 16.4061L23.9655 16.5442L23.9595 16.6765L23.953 16.8036L23.946 16.9261L23.9385 17.0445L23.9306 17.159L23.9221 17.2701L23.9132 17.3779L23.9037 17.4828L23.8938 17.585L23.8834 17.6845L23.8725 17.7816L23.8612 17.8765L23.8493 17.9692L23.837 18.0599L23.8241 18.1486L23.8108 18.2355L23.797 18.3207L23.7826 18.4042L23.7678 18.4861L23.7525 18.5665L23.7367 18.6454L23.7204 18.7229L23.7036 18.7991L23.6863 18.8739L23.6686 18.9475L23.6503 19.0199L23.6315 19.0911L23.6122 19.1611L23.5924 19.23L23.5721 19.2978L23.5513 19.3646L23.53 19.4303L23.5081 19.4951L23.4858 19.5588L23.4629 19.6216L23.4396 19.6835L23.4157 19.7445L23.3913 19.8046L23.3664 19.8638L23.341 19.9222L23.315 19.9797L23.2885 20.0364L23.2615 20.0923L23.234 20.1474L23.2059 20.2017L23.1773 20.2552L23.1482 20.308L23.1185 20.3601L23.0883 20.4114L23.0576 20.462L23.0263 20.5119L22.9944 20.5611L22.962 20.6096L22.9291 20.6574L22.8956 20.7046L22.8615 20.751L22.8269 20.7969L22.7917 20.842L22.7559 20.8866L22.7196 20.9304L22.6827 20.9737L22.6452 21.0163L22.6071 21.0583L22.5684 21.0997L22.5291 21.1405L22.4892 21.1807L22.4487 21.2203L22.4077 21.2593L22.3659 21.2977L22.3236 21.3356L22.2807 21.3728L22.2371 21.4095L22.1928 21.4456L22.148 21.4812L22.1025 21.5162L22.0563 21.5506L22.0094 21.5845L21.9619 21.6178L21.9137 21.6506L21.8648 21.6828L21.8152 21.7145L21.7649 21.7457L21.7139 21.7763L21.6622 21.8064L21.6097 21.8359L21.5565 21.865L21.5025 21.8935L21.4477 21.9214L21.3922 21.9489L21.3359 21.9758L21.2787 22.0023L21.2208 22.0282L21.162 22.0536L21.1023 22.0785L21.0417 22.1028L20.9803 22.1267L20.918 22.1501L20.8547 22.1729L20.7905 22.1953L20.7253 22.2172L20.6591 22.2385L20.5919 22.2594L20.5236 22.2798L20.4543 22.2996L20.3839 22.319L20.3123 22.3379L20.2395 22.3563L20.1656 22.3742L20.0903 22.3916L20.0138 22.4085L19.936 22.425L19.8568 22.441L19.7761 22.4564L19.6939 22.4714L19.6102 22.4859L19.5249 22.5L19.4378 22.5135L19.349 22.5266L19.2583 22.5391L19.1657 22.5513L19.0709 22.5629L18.974 22.574L18.8748 22.5847L18.7731 22.5949L18.6688 22.6046L18.5617 22.6139L18.4515 22.6226L18.3381 22.6309L18.2211 22.6387L18.1003 22.6461L17.9752 22.653L17.8455 22.6594L17.7106 22.6653L17.5698 22.6707L17.4223 22.6757L17.2672 22.6802L17.1032 22.6843L16.9286 22.6878L16.741 22.6909L16.5371 22.6936L16.3119 22.6957L16.0568 22.6974L15.7555 22.6986L15.3673 22.6994L8.70956 22.6994L8.29879 22.6988L7.98756 22.6976L7.72653 22.696L7.49723 22.6939L7.29036 22.6914L7.10044 22.6884L6.92391 22.6849L6.75833 22.6809L6.60191 22.6765L6.45332 22.6716L6.31152 22.6662L6.17569 22.6603L6.04517 22.654L5.9194 22.6472L5.79793 22.6399L5.68038 22.6322L5.56641 22.624L5.45576 22.6153L5.34816 22.6061L5.2434 22.5965L5.1413 22.5864L5.0417 22.5758L4.94443 22.5647L4.84937 22.5531L4.75639 22.5411L4.6654 22.5286L4.57628 22.5156L4.48896 22.5021L4.40335 22.4882L4.31937 22.4738L4.23696 22.4588L4.15606 22.4434L4.07661 22.4276L3.99855 22.4112L3.92183 22.3943L3.84641 22.377L3.77225 22.3592L3.69931 22.3409L3.62754 22.322L3.55692 22.3027L3.48741 22.2829L3.41898 22.2627L3.3516 22.2419L3.28525 22.2206L3.2199 22.1988L3.15553 22.1765L3.09211 22.1537L3.02962 22.1305L2.96805 22.1067L2.90737 22.0824L2.84756 22.0576L2.78862 22.0323L2.73052 22.0064L2.67324 21.9801L2.61678 21.9532L2.56112 21.9258L2.50624 21.898L2.45213 21.8695L2.39879 21.8406L2.3462 21.8111L2.29434 21.7811L2.24321 21.7506L2.1928 21.7195L2.1431 21.6879L2.0941 21.6558L2.04579 21.6231L1.99816 21.5898L1.95121 21.556L1.90493 21.5217L1.8593 21.4868L1.81433 21.4513L1.77 21.4153L1.72631 21.3787L1.68326 21.3416L1.64083 21.3038L1.59903 21.2655L1.55784 21.2266L1.51726 21.1871L1.47728 21.147L1.43791 21.1063L1.39914 21.065L1.36095 21.0231L1.32335 20.9805L1.28634 20.9374L1.24991 20.8936L1.21405 20.8492L1.17876 20.8041L1.14403 20.7584L1.10987 20.712L1.07628 20.665L1.04324 20.6173L1.01076 20.5689L0.978823 20.5198L0.94744 20.47L0.916602 20.4195L0.886307 20.3683L0.856553 20.3164L0.827335 20.2637L0.798651 20.2103L0.770503 20.1561L0.742886 20.1011L0.715797 20.0453L0.689235 19.9888L0.663198 19.9314L0.637685 19.8732L0.612689 19.8141L0.588213 19.7541L0.564255 19.6933L0.540813 19.6316L0.517881 19.5689L0.495467 19.5053L0.473558 19.4407L0.452163 19.3751L0.431275 19.3085L0.410888 19.2409L0.391012 19.1721L0.371639 19.1023L0.352768 19.0313L0.334396 18.9591L0.316527 18.8857L0.299156 18.8111L0.282282 18.7352L0.26591 18.6579L0.250029 18.5792L0.234645 18.499L0.219755 18.4174L0.205358 18.3341L0.191456 18.2492L0.178046 18.1626L0.165124 18.0741L0.152695 17.9838L0.140753 17.8914L0.129303 17.7969L0.118338 17.7001L0.107865 17.601L0.0978769 17.4993L0.0883768 17.3948L0.0793614 17.2875L0.0708307 17.1769L0.0627883 17.0629L0.0552306 16.9452L0.048154 16.8234L0.0415656 16.697L0.0354584 16.5656L0.0298359 16.4286L0.0246981 16.2851L0.0200414 16.1342L0.0158694 15.9747L0.0121749 15.805L0.00896873 15.6228L0.00624005 15.4251L0.00399608 15.2069L0.00223321 14.9605L0.000951447 14.6707L0.000150795 14.3011L0 12.4247L0.000646266 12.0108L0.00177364 11.7015L0.00338212 11.4434L0.00547172 11.2173L0.00804601 11.0137L0.0111014 10.827L0.0146379 10.6536L0.0186591 10.491L0.0231614 10.3376L0.0281485 10.1918L0.0336166 10.0528L0.0395694 9.91968L0.0460033 9.79177L0.0529256 9.66854L0.0603289 9.54955L0.0682169 9.43442L0.0765932 9.32281L0.0854507 9.21446L0.0947964 9.10911L0.10463 9.00656L0.114949 8.90661L0.125756 8.80911L0.137051 8.71391L0.148839 8.62087L0.16111 8.52988L0.173874 8.44083L0.18713 8.35363L0.200877 8.26818L0.215117 8.18441L0.229848 8.10224L0.245075 8.02162L0.260797 7.94246L0.277015 7.86473L0.293728 7.78836L0.31094 7.71331L0.328651 7.63953L0.346862 7.56698L0.365571 7.49563L0.384787 7.42542L0.404505 7.35634L0.424726 7.28835L0.445453 7.22141L0.46669 7.15551L0.488433 7.09061L0.510686 7.02669L0.533453 6.96372L0.556733 6.90169L0.580526 6.84057L0.604836 6.78035L0.629664 6.721L0.655015 6.6625L0.680884 6.60485L0.70728 6.54802L0.734201 6.492L0.761649 6.43678L0.789629 6.38234L0.81814 6.32866L0.847186 6.27575L0.876771 6.22357L0.906894 6.17213L0.937559 6.12142L0.968767 6.07141L1.00053 6.02211L1.03283 5.9735L1.0657 5.92557L1.09911 5.87832L1.13309 5.83174L1.16763 5.78582L1.20274 5.74055L1.23842 5.69592L1.27467 5.65193L1.3115 5.60858L1.34891 5.56585L1.38691 5.52374L1.4255 5.48224L1.46468 5.44135L1.50446 5.40106L1.54484 5.36137L1.58584 5.32227L1.62745 5.28376L1.66968 5.24583L1.71253 5.20848L1.75601 5.17171L1.80014 5.1355L1.84491 5.09986L1.89032 5.06478L1.93639 5.03026L1.98313 4.99629L2.03054 4.96288L2.07864 4.93002L2.12742 4.89769L2.1769 4.86592L2.22708 4.83468L2.27798 4.80397L2.3296 4.7738L2.38196 4.74416L2.43506 4.71505L2.48892 4.68647L2.54355 4.6584L2.59896 4.63086L2.65517 4.60384L2.71218 4.57734L2.77002 4.55134L2.8287 4.52587L2.88823 4.5009L2.94862 4.47644L3.00991 4.45249L3.0721 4.42904L3.13522 4.4061L3.19929 4.38366L3.26433 4.36172L3.33036 4.34028L3.3974 4.31933L3.4655 4.29889L3.53466 4.27893L3.60492 4.25947L3.67632 4.24051L3.74889 4.22203L3.82266 4.20405L3.89767 4.18655L3.97397 4.16954L4.0516 4.15302L4.1306 4.13698L4.21103 4.12143L4.29296 4.10636L4.37642 4.09178L4.46151 4.07768L4.54828 4.06405L4.63681 4.05091L4.7272 4.03825L4.81953 4.02607L4.91392 4.01437L5.01047 4.00314L5.10931 3.99239L5.2106 3.98212L5.31449 3.97233L5.42116 3.96301L5.53082 3.95416L5.6437 3.94579L5.76008 3.9379L5.88026 3.93047L6.00461 3.92353L6.13357 3.91705L6.26764 3.91105L6.40746 3.90552L6.55379 3.90046L6.70758 3.89587L6.87008 3.89176L7.04289 3.88811L7.22823 3.88494L7.42922 3.88224L7.6506 3.88001L7.90013 3.87825L8.19234 3.87696L8.5615 3.87614L15.2068 3.87592L15.6447 3.87651L15.967 3.87757L16.2344 3.87911L16.468 3.88111L16.678 3.88359L16.8704 3.88654L17.0488 3.88996L17.216 3.89385L17.3738 3.89821L17.5236 3.90304L17.6664 3.90835L17.8031 3.91412L17.9345 3.92037L18.0609 3.9271L18.1831 3.93429L18.3012 3.94196L18.4157 3.9501L18.5269 3.95872L18.635 3.96781L18.7402 3.97738L18.8427 3.98743L18.9427 3.99795L19.0403 4.00894L19.1357 4.02042L19.229 4.03237L19.3203 4.0448L19.4097 4.05772L19.4973 4.07111L19.5832 4.08498L19.6674 4.09933L19.7501 4.11417L19.8312 4.12949L19.9109 4.1453L19.9892 4.16159L20.0661 4.17836L20.1417 4.19563L20.2161 4.21338L20.2892 4.23162L20.3612 4.25035L20.432 4.26958L20.5017 4.28929L20.5703 4.3095L20.6378 4.33021L20.7043 4.35141L20.7698 4.37311L20.8344 4.39531L20.8979 4.41802L20.9606 4.44122L21.0223 4.46493L21.0831 4.48915L21.143 4.51387L21.2021 4.53911L21.2604 4.56485L21.3178 4.59111L21.3744 4.61789L21.4301 4.64518L21.4851 4.67299L21.5394 4.70133L21.5928 4.73019L21.6455 4.75958L21.6975 4.78949L21.7488 4.81994L21.7993 4.85092L21.8491 4.88244L21.8982 4.9145L21.9466 4.94711L21.9944 4.98026L22.0414 5.01396L22.0878 5.04822L22.1335 5.08303L22.1786 5.1184L22.2231 5.15433L22.2668 5.19084L22.31 5.22791L22.3525 5.26557L22.3944 5.3038L22.4357 5.34262L22.4764 5.38202L22.5165 5.42202L22.5559 5.46263L22.5948 5.50383L22.6331 5.54565L22.6708 5.58808L22.7079 5.63114L22.7444 5.67483L22.7804 5.71914L22.8157 5.76411L22.8505 5.80972L22.8848 5.85598L22.9185 5.90291L22.9516 5.95051L22.9842 5.9988L23.0162 6.04777L23.0477 6.09743L23.0786 6.14781L23.109 6.1989L23.1388 6.25073L23.1681 6.30329L23.1969 6.3566L23.2251 6.41067L23.2528 6.46552L23.28 6.52116L23.3066 6.5776L23.3328 6.63485L23.3584 6.69294L23.3834 6.75188L23.408 6.81169L23.432 6.87238L23.4556 6.93397L23.4786 6.99648L23.5011 7.05995L23.5231 7.12437L23.5445 7.1898L23.5655 7.25624L23.586 7.32372L23.6059 7.39228L23.6254 7.46194L23.6443 7.53274L23.6628 7.60472L23.6807 7.6779L23.6982 7.75234L23.7151 7.82807L23.7316 7.90515L23.7476 7.98362L23.763 8.06353L23.778 8.14496L23.7924 8.22795L23.8064 8.31259L23.8199 8.39894L23.8329 8.4871L23.8454 8.57715L23.8574 8.66919L23.869 8.76334L23.88 8.85973L23.8906 8.95849L23.9006 9.05977L23.9102 9.16376L23.9193 9.27065L23.9279 9.38067L23.936 9.49408L23.9437 9.61119L23.9508 9.73234L23.9575 9.85795L23.9637 9.98851L23.9694 10.1246L23.9746 10.267L23.9793 10.4167L23.9836 10.5747L23.9873 10.7427L23.9906 10.9227L23.9934 11.1176L23.9958 11.3321L23.9976 11.5733L23.999 11.8546L23.9998 12.207L24 14.2289ZM9.88236 18.4643H13.6471C17.2138 18.4643 19.2943 16.2458 19.2943 13.2581C19.2943 10.2409 17.2421 8.11116 13.7037 8.11116H9.88236V18.4643ZM7.99997 18.4643H5.17639V8.11116H7.99997V18.4643Z"/>
</svg>
