<svg width="24" height="24" viewBox="0 0 24 24" fill="none" xmlns="http://www.w3.org/2000/svg">
<path d="M16.2346 4C16.6243 4 16.9403 4.32932 16.9403 4.73555V8.4133C16.9403 8.71024 16.769 8.97806 16.506 9.09227L12.9658 10.6295L13.9197 12.6456L16.0924 12.9749C16.9297 13.1017 17.2821 14.1404 16.7427 14.7867L16.6791 14.8568L15.1067 16.4529L15.4786 18.7077C15.6216 19.5768 14.7827 20.2469 14.0262 19.9122L13.9425 19.8708L12 18.8059L10.0574 19.8709C9.30852 20.2811 8.43775 19.6567 8.5095 18.8034L8.5214 18.7077L8.89253 16.4529L7.32092 14.8569C6.71494 14.2414 7.01572 13.1852 7.81656 12.9927L7.90758 12.9749L10.0796 12.6456L11.0334 10.6295L7.49399 9.09227C7.25729 8.98948 7.09485 8.76227 7.06473 8.50138L7.05967 8.4133V4.73555C7.05967 4.32932 7.37565 4 7.76543 4H16.2346ZM12 11.9138L11.2631 13.4704C11.1088 13.7961 10.8107 14.0218 10.466 14.074L8.81772 14.3227L10.0104 15.5348C10.2323 15.7602 10.3469 16.0738 10.3283 16.3921L10.315 16.5115L10.033 18.2219L11.5075 17.4143C11.7816 17.2642 12.1031 17.2475 12.3877 17.3643L12.4926 17.4143L13.9662 18.2211L13.685 16.5116C13.6326 16.1934 13.7168 15.8694 13.9114 15.6234L13.9895 15.5349L15.1816 14.3227L13.5341 14.074C13.2237 14.027 12.9512 13.8395 12.7874 13.565L12.7369 13.4704L12 11.9138ZM15.5288 5.4711H8.47119V7.92269L12 9.45484L15.5288 7.92195V5.4711Z" />
</svg>
