<svg width="24" height="24" viewBox="0 0 24 24" fill="none" xmlns="http://www.w3.org/2000/svg">
<path d="M8.40439 14.9905C8.40439 14.5763 8.74017 14.2405 9.15439 14.2405H14.8461C15.2603 14.2405 15.5961 14.5763 15.5961 14.9905C15.5961 15.4047 15.2603 15.7405 14.8461 15.7405H9.15439C8.74017 15.7405 8.40439 15.4047 8.40439 14.9905Z" fill="currentColor" />
<path d="M9.15439 10.7625C8.74017 10.7625 8.40439 11.0982 8.40439 11.5125C8.40439 11.9267 8.74017 12.2625 9.15439 12.2625H14.8461C15.2603 12.2625 15.5961 11.9267 15.5961 11.5125C15.5961 11.0982 15.2603 10.7625 14.8461 10.7625H9.15439Z" fill="currentColor"/>
<path fill-rule="evenodd" clip-rule="evenodd" d="M9.60117 3.98462C9.18695 3.98462 8.85117 4.32041 8.85117 4.73462V5.03345H6.254C5.83978 5.03345 5.504 5.36923 5.504 5.78345V19.2654C5.504 19.6796 5.83978 20.0154 6.254 20.0154H17.746C18.1602 20.0154 18.496 19.6796 18.496 19.2654V5.78345C18.496 5.36923 18.1602 5.03345 17.746 5.03345H15.1485V4.73462C15.1485 4.32041 14.8127 3.98462 14.3985 3.98462H9.60117ZM15.1485 6.53345V7.249C15.1485 7.66322 14.8127 7.999 14.3985 7.999H9.60117C9.18695 7.999 8.85117 7.66322 8.85117 7.249V6.53345H7.004V18.5154H16.996V6.53345H15.1485ZM10.3512 6.499V5.48462H13.6485V6.499H10.3512Z" />
</svg>
