<svg xmlns="http://www.w3.org/2000/svg"  width="24px" height="24px" viewBox="0 0 24 24" version="1.1">
	<path d="M 22.285156 13.78125 L 21.59375 13.78125 C 21.433594 13.167969 21.191406 12.578125 20.867188 12.035156 L 21.359375 11.546875 C 21.617188 11.289062 21.617188 10.871094 21.359375 10.613281 L 19.953125 9.210938 C 19.832031 9.085938 19.664062 9.019531 19.488281 9.019531 C 19.3125 9.019531 19.144531 9.085938 19.023438 9.210938 L 18.535156 9.699219 C 17.988281 9.378906 17.398438 9.132812 16.789062 8.976562 L 16.789062 8.285156 C 16.789062 7.921875 16.492188 7.625 16.128906 7.625 L 14.144531 7.625 C 13.78125 7.625 13.484375 7.921875 13.484375 8.285156 L 13.484375 8.976562 C 12.875 9.132812 12.285156 9.378906 11.742188 9.699219 L 11.25 9.210938 C 11.152344 9.113281 11.03125 9.050781 10.898438 9.027344 C 10.398438 8.390625 9.746094 7.898438 9.011719 7.589844 C 9.835938 6.875 10.359375 5.820312 10.359375 4.644531 C 10.359375 2.488281 8.609375 0.738281 6.457031 0.738281 C 4.300781 0.738281 2.550781 2.488281 2.550781 4.644531 C 2.550781 5.816406 3.074219 6.875 3.898438 7.589844 C 2.210938 8.296875 1.023438 9.964844 1.023438 11.90625 L 1.023438 17.28125 C 1.023438 17.644531 1.316406 17.941406 1.679688 17.941406 L 8.964844 17.941406 C 9.089844 18.246094 9.238281 18.542969 9.40625 18.828125 L 8.914062 19.316406 C 8.660156 19.574219 8.660156 19.992188 8.914062 20.25 L 10.320312 21.652344 C 10.578125 21.910156 10.992188 21.910156 11.25 21.652344 L 11.742188 21.164062 C 12.285156 21.484375 12.875 21.730469 13.484375 21.886719 L 13.484375 22.578125 C 13.484375 22.941406 13.78125 23.238281 14.144531 23.238281 L 16.128906 23.238281 C 16.492188 23.238281 16.789062 22.941406 16.789062 22.578125 L 16.789062 21.886719 C 17.398438 21.730469 17.988281 21.484375 18.535156 21.164062 L 19.023438 21.652344 C 19.28125 21.910156 19.699219 21.910156 19.953125 21.652344 L 21.359375 20.25 C 21.617188 19.992188 21.617188 19.574219 21.359375 19.316406 L 20.867188 18.828125 C 21.191406 18.285156 21.433594 17.695312 21.59375 17.082031 L 22.285156 17.082031 C 22.648438 17.082031 22.941406 16.789062 22.941406 16.425781 L 22.941406 14.441406 C 22.941406 14.078125 22.648438 13.78125 22.285156 13.78125 Z M 6.457031 2.058594 C 7.882812 2.058594 9.042969 3.214844 9.042969 4.644531 C 9.042969 6.070312 7.882812 7.230469 6.457031 7.230469 C 5.03125 7.230469 3.871094 6.070312 3.871094 4.644531 C 3.871094 3.214844 5.027344 2.058594 6.457031 2.058594 Z M 2.339844 11.90625 C 2.339844 10.054688 3.847656 8.546875 5.703125 8.546875 L 7.210938 8.546875 C 8.203125 8.546875 9.148438 8.992188 9.78125 9.746094 L 8.914062 10.613281 C 8.660156 10.871094 8.660156 11.289062 8.914062 11.546875 L 9.40625 12.035156 C 9.082031 12.578125 8.839844 13.167969 8.683594 13.78125 L 7.992188 13.78125 C 7.625 13.78125 7.332031 14.078125 7.332031 14.441406 L 7.332031 16.425781 C 7.332031 16.492188 7.339844 16.558594 7.363281 16.621094 L 2.339844 16.621094 Z M 21.625 15.765625 L 21.058594 15.765625 C 20.734375 15.765625 20.460938 16 20.40625 16.316406 C 20.277344 17.109375 19.957031 17.878906 19.488281 18.535156 C 19.300781 18.796875 19.332031 19.15625 19.558594 19.382812 L 19.960938 19.785156 L 19.488281 20.253906 L 19.089844 19.855469 C 18.859375 19.625 18.5 19.597656 18.238281 19.785156 C 17.582031 20.253906 16.816406 20.570312 16.019531 20.703125 C 15.703125 20.757812 15.46875 21.03125 15.46875 21.351562 L 15.46875 21.917969 L 14.804688 21.917969 L 14.804688 21.351562 C 14.804688 21.03125 14.570312 20.757812 14.253906 20.703125 C 13.457031 20.570312 12.691406 20.253906 12.035156 19.785156 C 11.773438 19.597656 11.414062 19.625 11.183594 19.855469 L 10.785156 20.253906 L 10.3125 19.785156 L 10.714844 19.382812 C 10.941406 19.15625 10.972656 18.796875 10.785156 18.535156 C 10.316406 17.878906 10 17.109375 9.867188 16.316406 C 9.8125 16 9.539062 15.765625 9.214844 15.765625 L 8.648438 15.765625 L 8.648438 15.097656 L 9.214844 15.097656 C 9.539062 15.097656 9.8125 14.867188 9.867188 14.546875 C 10 13.753906 10.316406 12.988281 10.785156 12.332031 C 10.972656 12.066406 10.941406 11.707031 10.714844 11.480469 L 10.3125 11.082031 L 10.785156 10.609375 L 11.183594 11.011719 C 11.414062 11.238281 11.773438 11.265625 12.035156 11.082031 C 12.691406 10.609375 13.457031 10.292969 14.253906 10.160156 C 14.570312 10.109375 14.804688 9.832031 14.804688 9.511719 L 14.804688 8.945312 L 15.46875 8.945312 L 15.46875 9.511719 C 15.46875 9.832031 15.703125 10.109375 16.019531 10.160156 C 16.816406 10.292969 17.582031 10.609375 18.238281 11.082031 C 18.5 11.265625 18.859375 11.238281 19.089844 11.011719 L 19.488281 10.609375 L 19.960938 11.082031 L 19.558594 11.480469 C 19.332031 11.707031 19.300781 12.066406 19.488281 12.332031 C 19.957031 12.988281 20.277344 13.753906 20.40625 14.546875 C 20.460938 14.867188 20.734375 15.097656 21.058594 15.097656 L 21.625 15.097656 Z M 21.625 15.765625 "/>
	<path d="M 15.136719 11.890625 C 13.183594 11.890625 11.59375 13.480469 11.59375 15.433594 C 11.59375 17.386719 13.183594 18.972656 15.136719 18.972656 C 17.089844 18.972656 18.679688 17.386719 18.679688 15.433594 C 18.679688 13.480469 17.089844 11.890625 15.136719 11.890625 Z M 15.136719 17.65625 C 13.910156 17.65625 12.914062 16.660156 12.914062 15.433594 C 12.914062 14.207031 13.910156 13.207031 15.136719 13.207031 C 16.363281 13.207031 17.359375 14.207031 17.359375 15.433594 C 17.359375 16.660156 16.363281 17.65625 15.136719 17.65625 Z M 15.136719 17.65625 "/>
</svg>
