<svg width="16" height="16" viewBox="0 0 16 16" fill="none" xmlns="http://www.w3.org/2000/svg">
	<path fill-rule="evenodd" clip-rule="evenodd" d="M4.95238 0C5.37317 0 5.71429 0.341116 5.71429 0.761905V1.14286H10.2857V0.761905C10.2857 0.341116 10.6268 0 11.0476 0C11.4684 0 11.8095 0.341116 11.8095 0.761905V1.14286H14.4762C15.3178 1.14286 16 1.8251 16 2.66667V14.4762C16 15.3178 15.3178 16 14.4762 16H1.52381C0.68224 16 0 15.3178 0 14.4762V2.66667C0 1.82509 0.682233 1.14286 1.52381 1.14286H4.19048V0.761905C4.19048 0.341116 4.53159 0 4.95238 0ZM4.19048 2.66667H1.52381V5.71429H14.4762V2.66667H11.8095V3.80952C11.8095 4.23031 11.4684 4.57143 11.0476 4.57143C10.6268 4.57143 10.2857 4.23031 10.2857 3.80952V2.66667H5.71429V3.80952C5.71429 4.23031 5.37317 4.57143 4.95238 4.57143C4.53159 4.57143 4.19048 4.23031 4.19048 3.80952V2.66667ZM14.4762 7.2381H1.52381V14.4762H14.4762V7.2381ZM3.42857 9.14286C3.42857 8.72207 3.76969 8.38095 4.19048 8.38095H6.47619C6.89698 8.38095 7.2381 8.72207 7.2381 9.14286C7.2381 9.56365 6.89698 9.90476 6.47619 9.90476H4.19048C3.76969 9.90476 3.42857 9.56365 3.42857 9.14286ZM8.7619 9.14286C8.7619 8.72207 9.10302 8.38095 9.52381 8.38095H11.8095C12.2303 8.38095 12.5714 8.72207 12.5714 9.14286C12.5714 9.56365 12.2303 9.90476 11.8095 9.90476H9.52381C9.10302 9.90476 8.7619 9.56365 8.7619 9.14286ZM3.42857 12.1905C3.42857 11.7697 3.76969 11.4286 4.19048 11.4286H6.47619C6.89698 11.4286 7.2381 11.7697 7.2381 12.1905C7.2381 12.6113 6.89698 12.9524 6.47619 12.9524H4.19048C3.76969 12.9524 3.42857 12.6113 3.42857 12.1905ZM8.7619 12.1905C8.7619 11.7697 9.10302 11.4286 9.52381 11.4286H11.8095C12.2303 11.4286 12.5714 11.7697 12.5714 12.1905C12.5714 12.6113 12.2303 12.9524 11.8095 12.9524H9.52381C9.10302 12.9524 8.7619 12.6113 8.7619 12.1905Z" />
</svg>
