<svg width="24" height="24" viewBox="0 0 24 24" fill="none" xmlns="http://www.w3.org/2000/svg">
<path fill-rule="evenodd" clip-rule="evenodd" d="M4 4.81618C4 4.36542 4.36533 4 4.81599 4H12.1599C12.3764 4 12.5839 4.08599 12.7369 4.23905L19.3356 10.8392C20.2215 11.7306 20.2215 13.1702 19.3356 14.0615L19.3339 14.0633L14.0686 19.3297C13.6401 19.7587 13.0583 20 12.4521 20C11.8457 20 11.2642 19.7589 10.8356 19.3298L4.23932 12.7393C4.0861 12.5862 4 12.3785 4 12.1618V4.81618ZM5.63199 5.63237V11.8235L11.9902 18.1761C12.1127 18.2988 12.2788 18.3676 12.4521 18.3676C12.6254 18.3676 12.7915 18.2987 12.9139 18.1762L18.1782 12.9107L18.1789 12.91C18.431 12.6555 18.431 12.2453 18.1789 11.9908L18.1782 11.9901L11.8219 5.63237H5.63199Z" />
<path fill-rule="evenodd" clip-rule="evenodd" d="M9.09997 10.1214C9.66329 10.1214 10.12 9.66459 10.12 9.10114C10.12 8.53769 9.66329 8.08091 9.09997 8.08091C8.53664 8.08091 8.07997 8.53769 8.07997 9.10114C8.07997 9.66459 8.53664 10.1214 9.09997 10.1214Z" />
</svg>
