<svg width="16" height="16" viewBox="0 0 16 16" fill="none" xmlns="http://www.w3.org/2000/svg">
	<path fill-rule="evenodd" clip-rule="evenodd" d="M0.227833 0.227833C0.531611 -0.0759445 1.02413 -0.0759445 1.32791 0.227833L8 6.89992L14.6721 0.227833C14.9759 -0.0759445 15.4684 -0.0759445 15.7722 0.227833C16.0759 0.531611 16.0759 1.02413 15.7722 1.32791L9.10008 8L15.7722 14.6721C16.0759 14.9759 16.0759 15.4684 15.7722 15.7722C15.4684 16.0759 14.9759 16.0759 14.6721 15.7722L8 9.10008L1.32791 15.7722C1.02413 16.0759 0.531611 16.0759 0.227833 15.7722C-0.0759445 15.4684 -0.0759445 14.9759 0.227833 14.6721L6.89992 8L0.227833 1.32791C-0.0759445 1.02413 -0.0759445 0.531611 0.227833 0.227833Z" />
</svg>
