<svg width="24" height="24" viewBox="0 0 24 24" fill="none" xmlns="http://www.w3.org/2000/svg">
<path fill-rule="evenodd" clip-rule="evenodd" d="M6.15606 4.00253C5.74153 3.96852 5.37695 4.2813 5.33688 4.70533L4.00355 18.8161C3.98387 19.0244 4.04665 19.232 4.17779 19.3924C4.30894 19.5529 4.49748 19.6526 4.70108 19.6693L8.70108 19.9975C9.11562 20.0315 9.4802 19.7187 9.52027 19.2947L10.8536 5.18388C10.8733 4.97561 10.8105 4.76797 10.6794 4.60756C10.5482 4.44714 10.3597 4.34739 10.1561 4.33069L6.15606 4.00253ZM5.5949 18.1767L6.7814 5.6198L9.26225 5.82333L8.07574 18.3802L5.5949 18.1767Z" />
<path d="M17.3333 7.90246C17.7541 7.90246 18.0952 8.25189 18.0952 8.68294V9.85367C18.0952 10.2847 17.7541 10.6342 17.3333 10.6342C16.9125 10.6342 16.5714 10.2847 16.5714 9.85367V8.68294C16.5714 8.25189 16.9125 7.90246 17.3333 7.90246Z" />
<path d="M14.2857 8.68294C14.2857 8.25189 13.9446 7.90246 13.5238 7.90246C13.103 7.90246 12.7619 8.25189 12.7619 8.68294V9.85367C12.7619 10.2847 13.103 10.6342 13.5238 10.6342C13.9446 10.6342 14.2857 10.2847 14.2857 9.85367V8.68294Z" />
<path fill-rule="evenodd" clip-rule="evenodd" d="M10.8571 5.17076C10.8571 4.73972 11.1983 4.39028 11.619 4.39028H19.2381C19.6589 4.39028 20 4.73972 20 5.17076V19.2195C20 19.6505 19.6589 20 19.2381 20H11.619C11.1983 20 10.8571 19.6505 10.8571 19.2195V5.17076ZM16.1905 18.439V5.95125H18.4762V18.439H16.1905ZM12.381 5.95125H14.6667V18.439H12.381V5.95125Z" />
</svg>
