<svg width="24" height="24" viewBox="0 0 24 24" fill="none" xmlns="http://www.w3.org/2000/svg">
<path d="M8.98109 12.258C8.98109 11.8375 9.33142 11.4965 9.76357 11.4965H14.2166C14.6488 11.4965 14.9991 11.8375 14.9991 12.258C14.9991 12.6786 14.6488 13.0196 14.2166 13.0196H9.76357C9.33142 13.0196 8.98109 12.6786 8.98109 12.258Z" />
<path d="M9.76357 14.9845C9.33142 14.9845 8.98109 15.3254 8.98109 15.746C8.98109 16.1666 9.33142 16.5075 9.76357 16.5075H14.2166C14.6488 16.5075 14.9991 16.1666 14.9991 15.746C14.9991 15.3254 14.6488 14.9845 14.2166 14.9845H9.76357Z" />
<path fill-rule="evenodd" clip-rule="evenodd" d="M6.30414 4.00208C5.95826 4.00208 5.62655 4.13579 5.38197 4.37381C5.1374 4.61183 5 4.93465 5 5.27126V18.7288C5 19.0655 5.1374 19.3883 5.38197 19.6263C5.62655 19.8643 5.95826 19.998 6.30414 19.998H17.6953C17.8666 19.998 18.0362 19.9652 18.1944 19.9014C18.3526 19.8376 18.4964 19.7441 18.6175 19.6263C18.7386 19.5084 18.8347 19.3685 18.9002 19.2145C18.9657 19.0605 18.9995 18.8955 18.9995 18.7288V8.59932C18.9998 8.58997 19 8.58057 19 8.57113C19 8.56169 18.9998 8.55229 18.9995 8.54293V8.31729C18.9995 8.11533 18.917 7.92163 18.7703 7.77882L15.1187 4.22512C14.972 4.08231 14.7729 4.00208 14.5654 4.00208H6.30414ZM6.56497 5.52509V18.475H17.4345V9.33264H14.3046C13.8724 9.33264 13.5221 8.9917 13.5221 8.57113V5.52509H6.56497ZM15.0871 6.3482V7.80962H16.5887L15.0871 6.3482Z" />
</svg>
