<svg width="16" height="16" viewBox="0 0 16 16" fill="none" xmlns="http://www.w3.org/2000/svg">
	<path d="M7.55963 15.7545C7.88913 16.0818 8.42337 16.0818 8.75287 15.7545C9.08238 15.4272 9.08238 14.8966 8.75287 14.5693L2.03699 8L8.75287 1.43072C9.08237 1.10342 9.08237 0.572769 8.75287 0.245473C8.42336 -0.0818243 7.88913 -0.0818242 7.55963 0.245473L0.247129 7.40738C-0.0823762 7.73467 -0.0823762 8.26533 0.247129 8.59262L7.55963 15.7545Z" />
	<path d="M14.5596 15.7545C14.8891 16.0818 15.4234 16.0818 15.7529 15.7545C16.0824 15.4272 16.0824 14.8966 15.7529 14.5693L9.03699 8L15.7529 1.43072C16.0824 1.10342 16.0824 0.572769 15.7529 0.245473C15.4234 -0.0818243 14.8891 -0.0818242 14.5596 0.245473L7.24713 7.40738C6.91762 7.73467 6.91762 8.26533 7.24713 8.59262L14.5596 15.7545Z" />
</svg>
