<svg width="16" height="16" viewBox="0 0 16 16" fill="none" xmlns="http://www.w3.org/2000/svg">
	<path d="M8.44037 0.245472C8.11087 -0.081825 7.57663 -0.0818231 7.24713 0.245472C6.91762 0.572769 6.91762 1.10342 7.24713 1.43072L13.963 8L7.24713 14.5693C6.91763 14.8966 6.91763 15.4272 7.24713 15.7545C7.57664 16.0818 8.11087 16.0818 8.44037 15.7545L15.7529 8.59262C16.0824 8.26533 16.0824 7.73467 15.7529 7.40738L8.44037 0.245472Z" />
	<path d="M1.44037 0.245472C1.11087 -0.0818248 0.576633 -0.0818229 0.247129 0.245472C-0.082377 0.57277 -0.082377 1.10342 0.247129 1.43072L6.96301 8L0.24713 14.5693C-0.0823746 14.8966 -0.0823746 15.4272 0.24713 15.7545C0.576635 16.0818 1.11087 16.0818 1.44037 15.7545L8.75287 8.59262C9.08238 8.26533 9.08238 7.73467 8.75287 7.40738L1.44037 0.245472Z" />
</svg>
