<svg width="24" height="24" viewBox="0 0 24 24" fill="none" xmlns="http://www.w3.org/2000/svg">
	<path fill-rule="evenodd" clip-rule="evenodd" d="M5.75696 3.99899C5.76547 3.99899 5.77394 3.99914 5.78237 3.99945C5.79172 3.99914 5.80111 3.99899 5.81054 3.99899H9.70389C9.71332 3.99899 9.72272 3.99914 9.73207 3.99945C9.7405 3.99914 9.74897 3.99899 9.75747 3.99899C9.96076 3.99899 10.1452 4.08564 10.2803 4.22633C10.421 4.36143 10.5076 4.54583 10.5076 4.74912C10.5076 4.75762 10.5074 4.76609 10.5071 4.77452C10.5075 4.78388 10.5076 4.79327 10.5076 4.8027V19.1973C10.5076 19.2068 10.5075 19.2162 10.5071 19.2255C10.5074 19.2339 10.5076 19.2424 10.5076 19.2509C10.5076 19.4542 10.421 19.6386 10.2803 19.7737C10.1452 19.9144 9.96076 20.001 9.75747 20.001C9.74897 20.001 9.7405 20.0009 9.73207 20.0006C9.72272 20.0009 9.71332 20.001 9.70389 20.001H5.81054C5.80111 20.001 5.79172 20.0009 5.78237 20.0006C5.77394 20.0009 5.76547 20.001 5.75696 20.001C5.55368 20.001 5.36928 19.9144 5.23417 19.7737C5.09348 19.6386 5.00684 19.4542 5.00684 19.2509C5.00684 19.2424 5.00699 19.2339 5.00729 19.2255C5.00699 19.2161 5.00684 19.2068 5.00684 19.1973V4.8027C5.00684 4.79327 5.00699 4.78388 5.00729 4.77453C5.00699 4.76609 5.00684 4.75762 5.00684 4.74912C5.00684 4.54583 5.09348 4.36142 5.23418 4.22632C5.36928 4.08563 5.55368 3.99899 5.75696 3.99899ZM6.50709 18.5008V5.49925L9.00735 5.49925V18.5008H6.50709ZM18.7698 16.7715C18.4723 17.0749 17.9899 17.0749 17.6923 16.7715L13.5215 12.5371C13.224 12.2337 13.224 11.7419 13.5215 11.4385L17.6923 7.20405C17.9899 6.90069 18.4723 6.90069 18.7698 7.20405C19.0674 7.50739 19.0674 7.99922 18.7698 8.30257L15.1377 11.9878L18.7698 15.673C19.0674 15.9764 19.0674 16.4682 18.7698 16.7715Z" />
</svg>
