<svg width="24" height="24" viewBox="0 0 24 24" fill="none" xmlns="http://www.w3.org/2000/svg">
<path fill-rule="evenodd" clip-rule="evenodd" d="M4.49219 6.06864C4.59631 6.02454 4.71179 6 4.83333 6H19.1667C19.2961 6 19.4187 6.02783 19.528 6.07748C19.5202 6.07398 19.5125 6.07058 19.5046 6.0673C19.6024 6.10814 19.6934 6.16748 19.7714 6.24507C19.9131 6.38592 20 6.57624 20 6.78571V17.2143C20 17.6482 19.6269 18 19.1667 18H4.83333C4.3731 18 4 17.6482 4 17.2143V6.78571C4 6.5702 4.09203 6.37495 4.24106 6.23299C4.31484 6.16262 4.39955 6.10804 4.49028 6.06945L4.49219 6.06864ZM6.97567 7.57143H17.0243L12 11.4817L6.97567 7.57143ZM5.66667 8.57183L5.66667 16.4286H18.3333L18.3333 8.57184L12.5631 13.1268C12.2445 13.4022 11.7555 13.4022 11.4369 13.1268L5.66667 8.57183Z" fill="white" fill-opacity="0.28"/>
</svg>
