<svg width="24" height="24" viewBox="0 0 24 24" fill="none" xmlns="http://www.w3.org/2000/svg">
<path d="M12 5.52381C10.1106 5.52381 8.57895 7.00198 8.57895 8.8254C8.57895 9.24619 8.22549 9.5873 7.78947 9.5873C7.35346 9.5873 7 9.24619 7 8.8254C7 6.1604 9.23858 4 12 4C14.7614 4 17 6.1604 17 8.8254C17 11.2311 15.1758 13.2257 12.7895 13.591V15.9365C12.7895 16.3573 12.436 16.6984 12 16.6984C11.564 16.6984 11.2105 16.3573 11.2105 15.9365V12.8895C11.2105 12.4687 11.564 12.127 12 12.127C13.8894 12.127 15.4211 10.6488 15.4211 8.8254C15.4211 7.00198 13.8894 5.52381 12 5.52381Z" />
<path d="M12 20C12.5814 20 13.0526 19.5452 13.0526 18.9841C13.0526 18.4231 12.5814 17.9683 12 17.9683C11.4186 17.9683 10.9474 18.4231 10.9474 18.9841C10.9474 19.5452 11.4186 20 12 20Z" />
</svg>
