<svg width="24" height="24" viewBox="0 0 24 24" fill="none" xmlns="http://www.w3.org/2000/svg">
	<path fill-rule="evenodd" clip-rule="evenodd" d="M5.03387 4.0006C5.02263 4.0002 5.01134 4 5 4C4.729 4 4.48318 4.1155 4.30308 4.30305C4.11551 4.48316 4 4.72899 4 5C4 5.01133 4.0002 5.02263 4.0006 5.03387C4.0002 5.04634 4 5.05886 4 5.07143V18.9286C4 18.9411 4.0002 18.9537 4.0006 18.9661C4.0002 18.9774 4 18.9887 4 19C4 19.271 4.1155 19.5168 4.30307 19.6969C4.48317 19.8845 4.729 20 5 20C5.01134 20 5.02263 19.9998 5.03387 19.9994C5.04634 19.9998 5.05886 20 5.07143 20H8.92857C8.94114 20 8.95367 19.9998 8.96613 19.9994C8.97738 19.9998 8.98867 20 9 20C9.27101 20 9.51684 19.8845 9.69694 19.6969C9.8845 19.5168 10 19.271 10 19C10 18.9887 9.9998 18.9774 9.9994 18.9661C9.9998 18.9537 10 18.9411 10 18.9286V5.07143C10 5.05885 9.9998 5.04633 9.9994 5.03386C9.9998 5.02262 10 5.01133 10 5C10 4.729 9.8845 4.48317 9.69694 4.30307C9.51683 4.1155 9.27101 4 9 4C8.98867 4 8.97738 4.0002 8.96613 4.0006C8.95367 4.0002 8.94114 4 8.92857 4H5.07143C5.05886 4 5.04634 4.0002 5.03387 4.0006ZM6 6V18H8V6L6 6Z"/>
	<path d="M14.9033 6.33293C14.4679 5.88903 13.7619 5.88903 13.3266 6.33293C12.8912 6.77683 12.8912 7.49653 13.3266 7.94043L17.3084 12L13.3266 16.0596C12.8912 16.5035 12.8912 17.2232 13.3266 17.6671C13.7619 18.111 14.4679 18.111 14.9033 17.6671L19.6735 12.8038C20.1089 12.3599 20.1089 11.6401 19.6735 11.1962L14.9033 6.33293Z"/>
</svg>
