<svg width="250" height="60" viewBox="0 0 250 60" fill="none" xmlns="http://www.w3.org/2000/svg">
<path d="M91.392 7.93399V22.4418H88.3601V10.4275H82.4947V22.4418H79.4628V7.93399H91.392Z"/>
<path d="M97.3584 22.6472C96.6642 22.6472 96.0456 22.5268 95.5025 22.2859C94.9594 22.0404 94.5296 21.6791 94.2132 21.2021C93.9015 20.7204 93.7457 20.1206 93.7457 19.4028C93.7457 18.7983 93.8566 18.2906 94.0786 17.8798C94.3006 17.4689 94.6028 17.1383 94.9853 16.888C95.3679 16.6377 95.8024 16.4488 96.2888 16.3213C96.7799 16.1938 97.2947 16.1041 97.8331 16.0521C98.4659 15.986 98.9759 15.9246 99.3632 15.8679C99.7504 15.8065 100.031 15.7168 100.206 15.5987C100.381 15.4807 100.468 15.3059 100.468 15.0745V15.032C100.468 14.5834 100.327 14.2363 100.043 13.9907C99.7646 13.7451 99.3679 13.6223 98.8531 13.6223C98.31 13.6223 97.8779 13.7428 97.5568 13.9836C97.2357 14.2198 97.0231 14.5173 96.9192 14.8762L94.1282 14.6495C94.2699 13.9883 94.5485 13.4169 94.9641 12.9352C95.3797 12.4488 95.9157 12.0757 96.5721 11.816C97.2333 11.5515 97.9984 11.4193 98.8673 11.4193C99.4718 11.4193 100.05 11.4901 100.603 11.6318C101.16 11.7735 101.654 11.9931 102.083 12.2906C102.518 12.5881 102.86 12.9706 103.111 13.4382C103.361 13.901 103.486 14.4559 103.486 15.1029V22.4418H100.624V20.9329H100.539C100.364 21.2729 100.131 21.5728 99.8378 21.8326C99.545 22.0876 99.1932 22.2883 98.7823 22.4347C98.3714 22.5764 97.8968 22.6472 97.3584 22.6472ZM98.2227 20.5645C98.6666 20.5645 99.0586 20.4772 99.3986 20.3024C99.7386 20.123 100.005 19.8821 100.199 19.5799C100.393 19.2776 100.49 18.9353 100.49 18.5527V17.3981C100.395 17.4594 100.265 17.5161 100.1 17.5681C99.9393 17.6153 99.7575 17.6602 99.5544 17.7027C99.3514 17.7404 99.1483 17.7759 98.9452 17.8089C98.7422 17.8373 98.558 17.8632 98.3927 17.8868C98.0385 17.9388 97.7292 18.0214 97.4647 18.1348C97.2002 18.2481 96.9948 18.4016 96.8484 18.5952C96.702 18.7841 96.6288 19.0203 96.6288 19.3036C96.6288 19.7145 96.7776 20.0285 97.0751 20.2458C97.3773 20.4583 97.7599 20.5645 98.2227 20.5645Z"/>
<path d="M113.4 15.7971V18.1702H107.719V15.7971H113.4ZM108.71 11.5609V22.4418H105.827V11.5609H108.71ZM115.291 11.5609V22.4418H112.429V11.5609H115.291Z"/>
<path d="M122.591 22.6543C121.472 22.6543 120.509 22.4276 119.701 21.9742C118.898 21.5161 118.279 20.8692 117.845 20.0333C117.411 19.1926 117.193 18.1985 117.193 17.0509C117.193 15.9317 117.411 14.9494 117.845 14.104C118.279 13.2587 118.891 12.5999 119.68 12.1276C120.473 11.6554 121.403 11.4193 122.471 11.4193C123.189 11.4193 123.857 11.535 124.476 11.7664C125.099 11.9931 125.642 12.3354 126.105 12.7935C126.572 13.2516 126.936 13.8278 127.196 14.522C127.455 15.2115 127.585 16.0191 127.585 16.9447V17.7735H118.398V15.9034H124.745C124.745 15.4689 124.65 15.084 124.461 14.7487C124.272 14.4134 124.01 14.1513 123.675 13.9624C123.344 13.7687 122.96 13.6719 122.52 13.6719C122.062 13.6719 121.656 13.7782 121.302 13.9907C120.952 14.1985 120.679 14.4795 120.48 14.8337C120.282 15.1832 120.18 15.5728 120.176 16.0025V17.7806C120.176 18.319 120.275 18.7841 120.473 19.1761C120.676 19.5681 120.962 19.8703 121.33 20.0828C121.699 20.2954 122.135 20.4016 122.641 20.4016C122.976 20.4016 123.283 20.3544 123.562 20.2599C123.84 20.1655 124.079 20.0238 124.277 19.8349C124.476 19.646 124.627 19.4146 124.731 19.1407L127.522 19.3249C127.38 19.9955 127.089 20.5811 126.65 21.0817C126.216 21.5775 125.654 21.9648 124.964 22.2434C124.28 22.5173 123.489 22.6543 122.591 22.6543Z"/>
<path d="M128.917 22.4418L128.903 20.0474H129.264C129.519 20.0474 129.739 19.986 129.923 19.8632C130.112 19.7357 130.268 19.5303 130.391 19.2469C130.513 18.9636 130.61 18.5881 130.681 18.1206C130.752 17.6484 130.799 17.0675 130.823 16.378L131 11.5609H139.274V22.4418H136.398V13.934H133.713L133.543 17.2564C133.5 18.1678 133.389 18.9518 133.21 19.6082C133.035 20.2647 132.792 20.803 132.48 21.2233C132.169 21.6389 131.793 21.9459 131.354 22.1443C130.915 22.3426 130.405 22.4418 129.824 22.4418H128.917Z"/>
<path d="M143.505 14.9045H146.756C148.196 14.9045 149.32 15.2493 150.128 15.9388C150.936 16.6235 151.339 17.5397 151.339 18.6873C151.339 19.4335 151.158 20.0899 150.794 20.6566C150.43 21.2186 149.906 21.6578 149.221 21.9742C148.537 22.2859 147.715 22.4418 146.756 22.4418H141.613V11.5609H144.496V20.0687H146.756C147.261 20.0687 147.677 19.9412 148.003 19.6861C148.329 19.4311 148.494 19.1053 148.499 18.7086C148.494 18.2883 148.329 17.9459 148.003 17.6814C147.677 17.4122 147.261 17.2776 146.756 17.2776H143.505V14.9045Z"/>
<path d="M81.5596 52.3641H78.2727L83.281 37.8563H87.2338L92.235 52.3641H88.9481L85.3141 41.1716H85.2007L81.5596 52.3641ZM81.3542 46.6616H89.1181V49.0559H81.3542V46.6616Z"/>
<path d="M93.0745 55.5518V49.9697H93.9104C94.1512 49.8186 94.3448 49.5778 94.4912 49.2472C94.6424 48.9166 94.7652 48.527 94.8596 48.0783C94.9588 47.6297 95.0343 47.1456 95.0863 46.6261C95.143 46.1019 95.1925 45.573 95.2351 45.0393L95.5184 41.4832H103.863V49.9697H105.549V55.5518H102.673V52.3641H96.0214V55.5518H93.0745ZM96.9139 49.9697H101.015V43.8068H98.0828L97.9694 45.0393C97.8891 46.2011 97.7734 47.1881 97.6223 48.0004C97.4712 48.808 97.2351 49.4644 96.9139 49.9697Z"/>
<path d="M113.74 49.0276L116.687 41.4832H118.982L114.739 52.3641H112.734L108.59 41.4832H110.878L113.74 49.0276ZM110.191 41.4832V52.3641H107.308V41.4832H110.191ZM117.438 52.3641V41.4832H120.285V52.3641H117.438Z"/>
<path d="M125.503 48.3829L129.42 41.4832H132.395V52.3641H129.519V45.4431L125.616 52.3641H122.62V41.4832H125.503V48.3829Z"/>
<path d="M142.387 45.7194V48.0925H136.706V45.7194H142.387ZM137.698 41.4832V52.3641H134.814V41.4832H137.698ZM144.279 41.4832V52.3641H141.417V41.4832H144.279Z"/>
<path d="M149.503 48.3829L153.42 41.4832H156.395V52.3641H153.519V45.4431L149.616 52.3641H146.62V41.4832H149.503V48.3829Z"/>
<path d="M163.731 52.5766C162.616 52.5766 161.658 52.3405 160.855 51.8682C160.057 51.3912 159.443 50.7301 159.013 49.8847C158.588 49.0394 158.375 48.0665 158.375 46.9662C158.375 45.8516 158.59 44.8741 159.02 44.0334C159.455 43.1881 160.071 42.5293 160.869 42.057C161.667 41.5801 162.616 41.3416 163.717 41.3416C164.666 41.3416 165.497 41.5139 166.21 41.8587C166.923 42.2034 167.488 42.6875 167.903 43.3109C168.319 43.9343 168.548 44.6663 168.59 45.5069H165.743C165.662 44.9638 165.45 44.527 165.105 44.1964C164.765 43.8611 164.319 43.6934 163.766 43.6934C163.299 43.6934 162.89 43.8209 162.541 44.0759C162.196 44.3262 161.927 44.6922 161.733 45.1739C161.54 45.6556 161.443 46.2389 161.443 46.9237C161.443 47.6179 161.537 48.2082 161.726 48.6946C161.92 49.1811 162.191 49.5518 162.541 49.8068C162.89 50.0618 163.299 50.1893 163.766 50.1893C164.111 50.1893 164.42 50.1185 164.694 49.9768C164.973 49.8351 165.202 49.6297 165.381 49.3605C165.566 49.0866 165.686 48.7584 165.743 48.3759H168.59C168.543 49.207 168.316 49.939 167.91 50.5719C167.509 51.2 166.954 51.6911 166.246 52.0453C165.537 52.3995 164.699 52.5766 163.731 52.5766Z"/>
<path d="M169.8 43.8563V41.4832H179.661V43.8563H176.154V52.3641H173.278V43.8563H169.8Z"/>
<path d="M181.49 56.4444V41.4832H184.465V43.3109H184.6C184.732 43.0181 184.923 42.7206 185.174 42.4183C185.429 42.1113 185.759 41.8563 186.165 41.6533C186.576 41.4455 187.086 41.3416 187.696 41.3416C188.489 41.3416 189.221 41.5494 189.892 41.9649C190.562 42.3758 191.098 42.9968 191.5 43.828C191.901 44.6545 192.102 45.6911 192.102 46.9378C192.102 48.1515 191.906 49.1763 191.514 50.0122C191.127 50.8434 190.598 51.4739 189.927 51.9036C189.261 52.3287 188.515 52.5412 187.689 52.5412C187.103 52.5412 186.605 52.4444 186.194 52.2507C185.788 52.0571 185.455 51.8139 185.195 51.5211C184.935 51.2236 184.737 50.9237 184.6 50.6214H184.508V56.4444H181.49ZM184.444 46.9237C184.444 47.5707 184.534 48.135 184.713 48.6167C184.893 49.0984 185.152 49.4739 185.493 49.743C185.833 50.0075 186.246 50.1397 186.732 50.1397C187.223 50.1397 187.639 50.0051 187.979 49.736C188.319 49.462 188.576 49.0842 188.751 48.6025C188.931 48.1161 189.02 47.5565 189.02 46.9237C189.02 46.2956 188.933 45.743 188.758 45.266C188.583 44.7891 188.326 44.416 187.986 44.1468C187.646 43.8776 187.228 43.743 186.732 43.743C186.241 43.743 185.825 43.8729 185.485 44.1326C185.15 44.3924 184.893 44.7607 184.713 45.2377C184.534 45.7147 184.444 46.2767 184.444 46.9237Z"/>
<path d="M197.216 52.5695C196.522 52.5695 195.903 52.4491 195.36 52.2082C194.817 51.9627 194.388 51.6014 194.071 51.1244C193.759 50.6427 193.604 50.0429 193.604 49.3251C193.604 48.7206 193.715 48.2129 193.937 47.8021C194.158 47.3912 194.461 47.0606 194.843 46.8103C195.226 46.56 195.66 46.3711 196.147 46.2436C196.638 46.1161 197.153 46.0264 197.691 45.9744C198.324 45.9083 198.834 45.8469 199.221 45.7902C199.608 45.7288 199.889 45.6391 200.064 45.5211C200.239 45.403 200.326 45.2283 200.326 44.9968V44.9543C200.326 44.5057 200.184 44.1586 199.901 43.913C199.622 43.6674 199.226 43.5446 198.711 43.5446C198.168 43.5446 197.736 43.6651 197.415 43.9059C197.094 44.1421 196.881 44.4396 196.777 44.7985L193.986 44.5718C194.128 43.9106 194.406 43.3392 194.822 42.8575C195.238 42.3711 195.774 41.998 196.43 41.7383C197.091 41.4738 197.856 41.3416 198.725 41.3416C199.33 41.3416 199.908 41.4124 200.461 41.5541C201.018 41.6958 201.512 41.9154 201.941 42.2129C202.376 42.5104 202.718 42.8929 202.968 43.3605C203.219 43.8233 203.344 44.3782 203.344 45.0252V52.3641H200.482V50.8552H200.397C200.222 51.1952 199.988 51.4951 199.696 51.7549C199.403 52.0099 199.051 52.2106 198.64 52.357C198.229 52.4987 197.755 52.5695 197.216 52.5695ZM198.081 50.4869C198.524 50.4869 198.916 50.3995 199.256 50.2247C199.597 50.0453 199.863 49.8044 200.057 49.5022C200.251 49.1999 200.347 48.8576 200.347 48.475V47.3204C200.253 47.3817 200.123 47.4384 199.958 47.4904C199.797 47.5376 199.615 47.5825 199.412 47.625C199.209 47.6627 199.006 47.6982 198.803 47.7312C198.6 47.7596 198.416 47.7855 198.251 47.8091C197.896 47.8611 197.587 47.9437 197.323 48.0571C197.058 48.1704 196.853 48.3239 196.706 48.5175C196.56 48.7064 196.487 48.9426 196.487 49.2259C196.487 49.6368 196.635 49.9508 196.933 50.1681C197.235 50.3806 197.618 50.4869 198.081 50.4869Z"/>
<path d="M204.612 43.8563V41.4832H214.473V43.8563H210.966V52.3641H208.09V43.8563H204.612Z"/>
<path d="M220.829 52.5766C219.728 52.5766 218.777 52.3428 217.974 51.8753C217.176 51.403 216.559 50.7466 216.125 49.906C215.691 49.0606 215.473 48.0807 215.473 46.9662C215.473 45.8422 215.691 44.8599 216.125 44.0193C216.559 43.1739 217.176 42.5175 217.974 42.0499C218.777 41.5777 219.728 41.3416 220.829 41.3416C221.929 41.3416 222.878 41.5777 223.676 42.0499C224.479 42.5175 225.098 43.1739 225.532 44.0193C225.967 44.8599 226.184 45.8422 226.184 46.9662C226.184 48.0807 225.967 49.0606 225.532 49.906C225.098 50.7466 224.479 51.403 223.676 51.8753C222.878 52.3428 221.929 52.5766 220.829 52.5766ZM220.843 50.2389C221.343 50.2389 221.761 50.0972 222.097 49.8139C222.432 49.5258 222.685 49.1338 222.855 48.638C223.029 48.1421 223.117 47.5777 223.117 46.9449C223.117 46.3121 223.029 45.7477 222.855 45.2519C222.685 44.756 222.432 44.364 222.097 44.0759C221.761 43.7879 221.343 43.6438 220.843 43.6438C220.338 43.6438 219.913 43.7879 219.568 44.0759C219.228 44.364 218.97 44.756 218.796 45.2519C218.626 45.7477 218.541 46.3121 218.541 46.9449C218.541 47.5777 218.626 48.1421 218.796 48.638C218.97 49.1338 219.228 49.5258 219.568 49.8139C219.913 50.0972 220.338 50.2389 220.843 50.2389Z"/>
<path d="M228.146 56.4444V41.4832H231.122V43.3109H231.256C231.388 43.0181 231.58 42.7206 231.83 42.4183C232.085 42.1113 232.416 41.8563 232.822 41.6533C233.233 41.4455 233.743 41.3416 234.352 41.3416C235.145 41.3416 235.877 41.5494 236.548 41.9649C237.218 42.3758 237.754 42.9968 238.156 43.828C238.557 44.6545 238.758 45.6911 238.758 46.9378C238.758 48.1515 238.562 49.1763 238.17 50.0122C237.783 50.8434 237.254 51.4739 236.583 51.9036C235.917 52.3287 235.171 52.5412 234.345 52.5412C233.759 52.5412 233.261 52.4444 232.85 52.2507C232.444 52.0571 232.111 51.8139 231.851 51.5211C231.591 51.2236 231.393 50.9237 231.256 50.6214H231.164V56.4444H228.146ZM231.1 46.9237C231.1 47.5707 231.19 48.135 231.369 48.6167C231.549 49.0984 231.809 49.4739 232.149 49.743C232.489 50.0075 232.902 50.1397 233.388 50.1397C233.88 50.1397 234.295 50.0051 234.635 49.736C234.975 49.462 235.233 49.0842 235.407 48.6025C235.587 48.1161 235.676 47.5565 235.676 46.9237C235.676 46.2956 235.589 45.743 235.414 45.266C235.24 44.7891 234.982 44.416 234.642 44.1468C234.302 43.8776 233.884 43.743 233.388 43.743C232.897 43.743 232.482 43.8729 232.142 44.1326C231.806 44.3924 231.549 44.7607 231.369 45.2377C231.19 45.7147 231.1 46.2767 231.1 46.9237Z"/>
<path d="M243.873 52.5695C243.178 52.5695 242.56 52.4491 242.017 52.2082C241.473 51.9627 241.044 51.6014 240.727 51.1244C240.416 50.6427 240.26 50.0429 240.26 49.3251C240.26 48.7206 240.371 48.2129 240.593 47.8021C240.815 47.3912 241.117 47.0606 241.499 46.8103C241.882 46.56 242.316 46.3711 242.803 46.2436C243.294 46.1161 243.809 46.0264 244.347 45.9744C244.98 45.9083 245.49 45.8469 245.877 45.7902C246.265 45.7288 246.546 45.6391 246.72 45.5211C246.895 45.403 246.982 45.2283 246.982 44.9968V44.9543C246.982 44.5057 246.841 44.1586 246.557 43.913C246.279 43.6674 245.882 43.5446 245.367 43.5446C244.824 43.5446 244.392 43.6651 244.071 43.9059C243.75 44.1421 243.537 44.4396 243.433 44.7985L240.642 44.5718C240.784 43.9106 241.063 43.3392 241.478 42.8575C241.894 42.3711 242.43 41.998 243.086 41.7383C243.747 41.4738 244.512 41.3416 245.381 41.3416C245.986 41.3416 246.564 41.4124 247.117 41.5541C247.674 41.6958 248.168 41.9154 248.597 42.2129C249.032 42.5104 249.374 42.8929 249.625 43.3605C249.875 43.8233 250 44.3782 250 45.0252V52.3641H247.138V50.8552H247.053C246.878 51.1952 246.645 51.4951 246.352 51.7549C246.059 52.0099 245.707 52.2106 245.296 52.357C244.886 52.4987 244.411 52.5695 243.873 52.5695ZM244.737 50.4869C245.181 50.4869 245.573 50.3995 245.913 50.2247C246.253 50.0453 246.52 49.8044 246.713 49.5022C246.907 49.1999 247.004 48.8576 247.004 48.475V47.3204C246.909 47.3817 246.779 47.4384 246.614 47.4904C246.453 47.5376 246.272 47.5825 246.069 47.625C245.865 47.6627 245.662 47.6982 245.459 47.7312C245.256 47.7596 245.072 47.7855 244.907 47.8091C244.553 47.8611 244.243 47.9437 243.979 48.0571C243.714 48.1704 243.509 48.3239 243.363 48.5175C243.216 48.7064 243.143 48.9426 243.143 49.2259C243.143 49.6368 243.292 49.9508 243.589 50.1681C243.891 50.3806 244.274 50.4869 244.737 50.4869Z"/>
<path fill-rule="evenodd" clip-rule="evenodd" d="M50.6108 12.9741C50.6108 16.8411 47.4647 19.9872 43.5977 19.9872C39.7307 19.9872 36.5847 16.8411 36.5847 12.9741V7.01304C36.5847 3.14605 39.7307 0 43.5977 0C47.4647 0 50.6108 3.14605 50.6108 7.01304V7.71434H57.5069C58.798 7.71434 59.8446 8.76092 59.8446 10.052C59.8446 11.3431 58.798 12.3897 57.5069 12.3897H50.6108V12.9741ZM43.5977 4.67536C42.3087 4.67536 41.26 5.72404 41.26 7.01304V12.9741C41.26 14.2631 42.3087 15.3118 43.5977 15.3118C44.8867 15.3118 45.9354 14.2631 45.9354 12.9741V7.01304C45.9354 5.72404 44.8867 4.67536 43.5977 4.67536Z"/>
<path d="M29.5716 12.3897H2.33768C1.04658 12.3897 0 11.3431 0 10.052C0 8.76092 1.04658 7.71434 2.33768 7.71434H29.5716C30.8628 7.71434 31.9093 8.76092 31.9093 10.052C31.9093 11.3431 30.8628 12.3897 29.5716 12.3897Z"/>
<path d="M29.5663 47.5718H2.33768C1.04658 47.5718 0 48.6184 0 49.9095C0 51.2006 1.04658 52.2471 2.33768 52.2471H29.5663C30.8574 52.2471 31.9039 51.2006 31.9039 49.9095C31.9039 48.6184 30.8574 47.5718 29.5663 47.5718Z"/>
<path d="M9.00007 32.2457H2.33768C1.04658 32.2457 0 31.1991 0 29.908C0 28.6169 1.04658 27.5704 2.33768 27.5704H9.00007C10.2912 27.5704 11.3377 28.6169 11.3377 29.908C11.3377 31.1991 10.2912 32.2457 9.00007 32.2457Z"/>
<path fill-rule="evenodd" clip-rule="evenodd" d="M57.5069 27.5704H30.0392V26.7664C30.0392 22.8994 26.8931 19.7534 23.0261 19.7534C19.1592 19.7534 16.0131 22.8994 16.0131 26.7664V32.8444C16.0131 36.7114 19.1592 39.8574 23.0261 39.8574C26.8931 39.8574 30.0392 36.7114 30.0392 32.8444V32.2457H57.5069C58.798 32.2457 59.8446 31.1991 59.8446 29.908C59.8446 28.6171 58.798 27.5704 57.5069 27.5704ZM25.3638 32.8444C25.3638 34.1334 24.3151 35.1821 23.0261 35.1821C21.7371 35.1821 20.6885 34.1334 20.6885 32.8444V26.7664C20.6885 25.4774 21.7371 24.4288 23.0261 24.4288C24.3151 24.4288 25.3638 25.4774 25.3638 26.7664V32.8444Z"/>
<path fill-rule="evenodd" clip-rule="evenodd" d="M50.6054 47.5718H57.5069C58.798 47.5718 59.8446 48.6184 59.8446 49.9095C59.8446 51.2006 58.798 52.2471 57.5069 52.2471H50.6054V52.8316C50.6054 56.6986 47.4593 59.8446 43.5923 59.8446C39.7254 59.8446 36.5793 56.6986 36.5793 52.8316V46.8705C36.5793 43.0035 39.7254 39.8574 43.5923 39.8574C47.4593 39.8574 50.6054 43.0035 50.6054 46.8705V47.5718ZM43.5923 55.1692C44.8813 55.1692 45.93 54.1206 45.93 52.8316V46.8705C45.93 45.5815 44.8813 44.5328 43.5923 44.5328C42.3033 44.5328 41.2547 45.5815 41.2547 46.8705V52.8316C41.2547 54.1206 42.3033 55.1692 43.5923 55.1692Z"/>
</svg>
