<svg width="24" height="24" viewBox="0 0 24 24" fill="none" xmlns="http://www.w3.org/2000/svg">
<path fill-rule="evenodd" clip-rule="evenodd" d="M4 4.72727C4 4.32561 4.32561 4 4.72727 4H12C12.3668 4 12.6762 4.27312 12.7217 4.63707L13.0057 6.90909H19.2727C19.6744 6.90909 20 7.2347 20 7.63636V19.2727C20 19.6744 19.6744 20 19.2727 20H10.9091C10.5423 20 10.2329 19.7269 10.1874 19.3629L9.90343 17.0909H4.72727C4.32561 17.0909 4 16.7653 4 16.3636V4.72727ZM11.3693 17.0909L11.4296 17.5734L11.8518 17.0909H11.3693ZM12.6307 15.6364H5.45455V5.45455H11.358L12.6307 15.6364ZM12.5118 18.5455H18.5455V8.36364H13.1875L13.3693 9.81818H16C16.4017 9.81818 16.7273 10.1438 16.7273 10.5455C16.7273 10.9471 16.4017 11.2727 16 11.2727H13.5511L13.7329 12.7273H16C16.4017 12.7273 16.7273 13.0529 16.7273 13.4545C16.7273 13.8562 16.4017 14.1818 16 14.1818H13.9148L14.1762 16.2734C14.2019 16.4793 14.1385 16.6864 14.0019 16.8425L12.5118 18.5455ZM6.18182 7.63636C6.18182 7.2347 6.50743 6.90909 6.90909 6.90909H9.45455C9.85621 6.90909 10.1818 7.2347 10.1818 7.63636C10.1818 8.03803 9.85621 8.36364 9.45455 8.36364H6.90909C6.50743 8.36364 6.18182 8.03803 6.18182 7.63636ZM6.18182 10.5455C6.18182 10.1438 6.50743 9.81818 6.90909 9.81818H9.81818C10.2198 9.81818 10.5455 10.1438 10.5455 10.5455C10.5455 10.9471 10.2198 11.2727 9.81818 11.2727H6.90909C6.50743 11.2727 6.18182 10.9471 6.18182 10.5455ZM6.18182 13.4545C6.18182 13.0529 6.50743 12.7273 6.90909 12.7273H10.1818C10.5835 12.7273 10.9091 13.0529 10.9091 13.4545C10.9091 13.8562 10.5835 14.1818 10.1818 14.1818H6.90909C6.50743 14.1818 6.18182 13.8562 6.18182 13.4545Z" />
</svg>
