<svg width="16" height="16" viewBox="0 0 16 16" fill="none" xmlns="http://www.w3.org/2000/svg">
	<path fill-rule="evenodd" clip-rule="evenodd" d="M8 1.45455C5.59003 1.45455 3.63636 3.40821 3.63636 5.81818V12.3636H12.3636V5.81818C12.3636 3.40821 10.41 1.45455 8 1.45455ZM13.8182 12.3636V5.81818C13.8182 2.60488 11.2133 0 8 0C4.7867 0 2.18182 2.60488 2.18182 5.81818V12.3636H0.727273C0.325611 12.3636 0 12.6892 0 13.0909C0 13.4926 0.325611 13.8182 0.727273 13.8182H5.48032C5.65677 15.0517 6.71766 16 8 16C9.28234 16 10.3432 15.0517 10.5197 13.8182H15.2727C15.6744 13.8182 16 13.4926 16 13.0909C16 12.6892 15.6744 12.3636 15.2727 12.3636H13.8182ZM9.02883 13.8182H6.97117C7.12093 14.2419 7.52502 14.5455 8 14.5455C8.47498 14.5455 8.87907 14.2419 9.02883 13.8182Z" />
</svg>
