<svg width="24" height="24" viewBox="0 0 24 24" fill="none" xmlns="http://www.w3.org/2000/svg">
<path fill-rule="evenodd" clip-rule="evenodd" d="M9.81818 4C9.01486 4 8.36364 4.68223 8.36364 5.52381V12.381H6.90909C6.10577 12.381 5.45455 13.0632 5.45455 13.9048V18.4762H4.72727C4.32561 18.4762 4 18.8173 4 19.2381C4 19.6589 4.32561 20 4.72727 20H6.90909H8.36364H9.81818H17.0909H19.2727C19.6744 20 20 19.6589 20 19.2381C20 18.8173 19.6744 18.4762 19.2727 18.4762H18.5455V5.52381C18.5455 4.68223 17.8942 4 17.0909 4H9.81818ZM17.0909 18.4762V5.52381H9.81818V13.9048V18.4762H17.0909ZM8.36364 13.9048H6.90909V16.1905V18.4762H8.36364V16.8505C8.25666 16.9153 8.13247 16.9524 8 16.9524H7.63636C7.2347 16.9524 6.90909 16.6113 6.90909 16.1905C6.90909 15.7697 7.2347 15.4286 7.63636 15.4286H8C8.13247 15.4286 8.25666 15.4657 8.36364 15.5305V13.9048ZM12.7273 7.04762H11.2727V8.57143H12.7273V7.04762ZM14.1818 7.04762H15.6364V8.57143H14.1818V7.04762ZM12.7273 9.71429H11.2727V11.2381H12.7273V9.71429ZM14.1818 9.71429H15.6364V11.2381H14.1818V9.71429ZM15.6364 12.381H14.1818V13.9048H15.6364V12.381ZM14.1818 15.0476H15.6364V16.5714H14.1818V15.0476Z" />
</svg>
