<svg width="16" height="16" viewBox="0 0 16 16" fill="none" xmlns="http://www.w3.org/2000/svg">
	<path fill-rule="evenodd" clip-rule="evenodd" d="M8.02374 6.58205e-07C8.43796 0.000543582 8.7733 0.33677 8.77276 0.750983L8.76686 7.25H15.25C15.6642 7.25 16 7.58579 16 8C16 8.41421 15.6642 8.75 15.25 8.75H8.7649L8.759 15.251C8.75846 15.6652 8.42223 16.0005 8.00802 16C7.5938 15.9995 7.25846 15.6632 7.259 15.249L7.2649 8.75H0.75C0.335786 8.75 0 8.41421 0 8C0 7.58579 0.335786 7.25 0.75 7.25H7.26686L7.27276 0.749017C7.27331 0.334804 7.60953 -0.000542221 8.02374 6.58205e-07Z" />
</svg>
