<svg width="24" height="24" viewBox="0 0 24 24" fill="none" xmlns="http://www.w3.org/2000/svg">
<path d="M10.8845 10.3093C10.4703 10.3093 10.1345 10.6451 10.1345 11.0593C10.1345 11.4735 10.4703 11.8093 10.8845 11.8093H13.1152C13.5294 11.8093 13.8652 11.4735 13.8652 11.0593C13.8652 10.6451 13.5294 10.3093 13.1152 10.3093H10.8845Z" />
<path fill-rule="evenodd" clip-rule="evenodd" d="M9.90842 4.69263C8.94192 4.69263 8.15842 5.47613 8.15842 6.44263V7.13501H4.88449C4.47028 7.13501 4.13449 7.4708 4.13449 7.88501V18.5576C4.13449 18.9718 4.47028 19.3076 4.88449 19.3076H19.1152C19.5294 19.3076 19.8652 18.9718 19.8652 18.5576V7.88501C19.8652 7.4708 19.5294 7.13501 19.1152 7.13501H15.8409V6.44263C15.8409 5.47613 15.0574 4.69263 14.0909 4.69263H9.90842ZM14.3409 7.13501V6.44263C14.3409 6.30456 14.2289 6.19263 14.0909 6.19263H9.90842C9.77035 6.19263 9.65842 6.30456 9.65842 6.44263V7.13501H14.3409ZM18.3652 8.63501H5.63449V11.3179C8.17141 12.4728 10.1185 13.0187 12.0209 13.0207C13.9218 13.0227 15.8555 12.4815 18.3652 11.3211V8.63501ZM5.63449 17.8076V12.9592C7.98989 13.9783 9.99086 14.5186 12.0193 14.5207C14.0454 14.5228 16.0336 13.988 18.3652 12.9663V17.8076H5.63449Z" />
</svg>
