<svg width="24" height="24" viewBox="0 0 24 24" fill="none" xmlns="http://www.w3.org/2000/svg">
<path fill-rule="evenodd" clip-rule="evenodd" d="M13.3823 4.10862C13.5968 4.24113 13.7273 4.47522 13.7273 4.72727V6.45961L17.0384 4.80405C17.2638 4.69133 17.5316 4.70338 17.746 4.83589C17.9604 4.9684 18.0909 5.20249 18.0909 5.45455V15.6364C18.0909 15.9118 17.9353 16.1637 17.6889 16.2869L10.4162 19.9232C10.1907 20.0359 9.92297 20.0239 9.70856 19.8914C9.49415 19.7589 9.36364 19.5248 9.36364 19.2727V17.5404L6.05252 19.1959C5.82707 19.3087 5.55933 19.2966 5.34492 19.1641C5.13051 19.0316 5 18.7975 5 18.5455V8.36364C5 8.08817 5.15564 7.83634 5.40203 7.71314L12.6748 4.07678C12.9002 3.96406 13.1679 3.9761 13.3823 4.10862ZM9.36364 15.9142V9.09091C9.36364 8.81544 9.51927 8.56361 9.76566 8.44042L12.2727 7.18688V5.90403L6.45455 8.81312V17.3687L9.36364 15.9142ZM10.8182 9.54039V18.096L16.6364 15.1869V6.6313L10.8182 9.54039Z" />
</svg>
