<svg width="24" height="24" viewBox="0 0 24 24" fill="none" xmlns="http://www.w3.org/2000/svg">
<path fill-rule="evenodd" clip-rule="evenodd" d="M4 5.45455C4 4.65122 4.65122 4 5.45455 4H9.81818C10.6215 4 11.2727 4.65122 11.2727 5.45455V9.81818C11.2727 10.6215 10.6215 11.2727 9.81818 11.2727H5.45455C4.65122 11.2727 4 10.6215 4 9.81818V5.45455ZM9.81818 5.45455H5.45455V9.81818H9.81818V5.45455ZM12.7273 5.45455C12.7273 4.65122 13.3785 4 14.1818 4H18.5455C19.3488 4 20 4.65122 20 5.45455V9.81818C20 10.6215 19.3488 11.2727 18.5455 11.2727H14.1818C13.3785 11.2727 12.7273 10.6215 12.7273 9.81818V5.45455ZM18.5455 5.45455H14.1818V9.81818H18.5455V5.45455ZM4 14.1818C4 13.3785 4.65122 12.7273 5.45455 12.7273H9.81818C10.6215 12.7273 11.2727 13.3785 11.2727 14.1818V18.5455C11.2727 19.3488 10.6215 20 9.81818 20H5.45455C4.65122 20 4 19.3488 4 18.5455V14.1818ZM9.81818 14.1818H5.45455V18.5455H9.81818V14.1818ZM12.7273 13.4545C12.7273 13.0529 13.0529 12.7273 13.4545 12.7273H19.2727C19.6744 12.7273 20 13.0529 20 13.4545C20 13.8562 19.6744 14.1818 19.2727 14.1818H13.4545C13.0529 14.1818 12.7273 13.8562 12.7273 13.4545ZM15.6364 16.3636C15.6364 15.962 15.962 15.6364 16.3636 15.6364H19.2727C19.6744 15.6364 20 15.962 20 16.3636C20 16.7653 19.6744 17.0909 19.2727 17.0909H16.3636C15.962 17.0909 15.6364 16.7653 15.6364 16.3636ZM12.7273 19.2727C12.7273 18.8711 13.0529 18.5455 13.4545 18.5455H19.2727C19.6744 18.5455 20 18.8711 20 19.2727C20 19.6744 19.6744 20 19.2727 20H13.4545C13.0529 20 12.7273 19.6744 12.7273 19.2727Z" />
</svg>
