<svg width="24" height="24" viewBox="0 0 24 24" fill="none" xmlns="http://www.w3.org/2000/svg">
<path fill-rule="evenodd" clip-rule="evenodd" d="M4 5.6C4 4.71634 4.71634 4 5.6 4H8.6C9.48366 4 10.2 4.71634 10.2 5.6V9.6C10.2 10.4837 9.48366 11.2 8.6 11.2H5.6C4.71634 11.2 4 10.4837 4 9.6V5.6ZM8.6 5.6H5.6V9.6H8.6V5.6ZM11.8 5.6C11.8 4.71634 12.5163 4 13.4 4H18.4C19.2837 4 20 4.71634 20 5.6V9.6C20 10.4837 19.2837 11.2 18.4 11.2H13.4C12.5163 11.2 11.8 10.4837 11.8 9.6V5.6ZM18.4 5.6H13.4V9.6H18.4V5.6ZM4 14.4C4 13.5163 4.71634 12.8 5.6 12.8H11.6C12.4837 12.8 13.2 13.5163 13.2 14.4V18.4C13.2 19.2837 12.4837 20 11.6 20H5.6C4.71634 20 4 19.2837 4 18.4V14.4ZM11.6 14.4H5.6V18.4H11.6V14.4ZM14.8 14.4C14.8 13.5163 15.5163 12.8 16.4 12.8H18.4C19.2837 12.8 20 13.5163 20 14.4V18.4C20 19.2837 19.2837 20 18.4 20H16.4C15.5163 20 14.8 19.2837 14.8 18.4V14.4ZM18.4 14.4H16.4V18.4H18.4V14.4Z" />
</svg>
