<svg width="16" height="16" viewBox="0 0 16 16" fill="none" xmlns="http://www.w3.org/2000/svg">
	<path fill-rule="evenodd" clip-rule="evenodd" d="M5.86128 0.0264448C6.19426 -0.0657298 6.54613 0.0890887 6.70315 0.396854C6.94461 0.870168 7.4354 1.19172 8 1.19172C8.5646 1.19172 9.05539 0.870168 9.29685 0.396854C9.45387 0.0890887 9.80574 -0.0657298 10.1387 0.0264448C11.3925 0.373517 12.5218 1.01764 13.4463 1.87729C13.6816 2.09607 13.7454 2.44333 13.6034 2.73151C13.5083 2.92428 13.4545 3.1416 13.4545 3.37353C13.4545 4.17685 14.1058 4.82808 14.9091 4.82808L14.9293 4.82793C15.2508 4.82334 15.5372 5.03042 15.6336 5.33719C15.8718 6.09573 16 6.90216 16 7.73717C16 8.28826 15.9442 8.82708 15.8376 9.348C15.763 9.71293 15.4247 9.96247 15.054 9.92605C15.0066 9.92139 14.9583 9.91899 14.9091 9.91899C14.1058 9.91899 13.4545 10.5702 13.4545 11.3735C13.4545 11.7313 13.5828 12.0572 13.7966 12.3107C14.0368 12.5954 14.0231 13.0156 13.7648 13.284C12.8208 14.2649 11.6278 15.0061 10.2861 15.4056C9.90662 15.5185 9.50645 15.3071 9.38588 14.93C9.19816 14.3427 8.64763 13.919 8 13.919C7.35238 13.919 6.80184 14.3427 6.61412 14.93C6.49355 15.3071 6.09338 15.5185 5.71386 15.4056C4.37223 15.0061 3.17922 14.2649 2.2352 13.284C1.97689 13.0156 1.96316 12.5954 2.20338 12.3107C2.41723 12.0572 2.54545 11.7313 2.54545 11.3735C2.54545 10.5702 1.89423 9.91899 1.09091 9.91899C1.04173 9.91899 0.993411 9.92139 0.946025 9.92605C0.575328 9.96247 0.237031 9.71293 0.162386 9.348C0.0558309 8.82708 0 8.28825 0 7.73717C0 6.90217 0.128172 6.09573 0.366439 5.33719C0.462797 5.03042 0.74916 4.82334 1.07067 4.82793L1.09091 4.82808C1.89423 4.82808 2.54545 4.17685 2.54545 3.37353C2.54545 3.1416 2.4917 2.92428 2.39665 2.73151C2.25457 2.44333 2.31841 2.09607 2.55371 1.87729C3.47823 1.01764 4.60749 0.373517 5.86128 0.0264448ZM3.90424 2.63118C3.96676 2.86857 4 3.11749 4 3.37353C4 4.79668 2.97807 5.98115 1.628 6.23314C1.51463 6.7155 1.45455 7.21893 1.45455 7.73717C1.45455 7.9929 1.46918 8.24498 1.49761 8.49265C2.91172 8.69046 4 9.90491 4 11.3735C4 11.8385 3.89054 12.2786 3.69621 12.6689C4.24167 13.1453 4.86649 13.5325 5.54786 13.808C6.06443 13.0004 6.96902 12.4644 8 12.4644C9.03098 12.4644 9.93557 13.0004 10.4521 13.808C11.1335 13.5325 11.7583 13.1453 12.3038 12.6689C12.1095 12.2786 12 11.8385 12 11.3735C12 9.90491 13.0883 8.69047 14.5024 8.49265C14.5308 8.24498 14.5455 7.9929 14.5455 7.73717C14.5455 7.21893 14.4854 6.7155 14.372 6.23314C13.0219 5.98115 12 4.79668 12 3.37353C12 3.11749 12.0332 2.86857 12.0958 2.63118C11.5447 2.18849 10.9208 1.83346 10.2453 1.58678C9.71234 2.23307 8.90481 2.64626 8 2.64626C7.09519 2.64626 6.28766 2.23307 5.75467 1.58678C5.07917 1.83346 4.45532 2.18849 3.90424 2.63118ZM4.72727 7.73717C4.72727 5.92969 6.19252 4.46444 8 4.46444C9.80748 4.46444 11.2727 5.92969 11.2727 7.73717C11.2727 9.54465 9.80748 11.0099 8 11.0099C6.19252 11.0099 4.72727 9.54465 4.72727 7.73717ZM8 5.91899C6.99584 5.91899 6.18182 6.73301 6.18182 7.73717C6.18182 8.74133 6.99584 9.55535 8 9.55535C9.00416 9.55535 9.81818 8.74133 9.81818 7.73717C9.81818 6.73301 9.00416 5.91899 8 5.91899Z" />
</svg>
