<svg width="16" height="12" viewBox="0 0 16 12" fill="none" xmlns="http://www.w3.org/2000/svg">
	<path fill-rule="evenodd" clip-rule="evenodd" d="M0 0.799999C0 0.358172 0.358172 0 0.799999 0H7.99999C8.44182 0 8.79999 0.358172 8.79999 0.799999C8.79999 1.24183 8.44182 1.6 7.99999 1.6H0.799999C0.358172 1.6 0 1.24183 0 0.799999ZM12.8 0C13.2418 0 13.6 0.358172 13.6 0.799999V9.03739L14.5926 7.87936C14.8801 7.5439 15.3852 7.50505 15.7206 7.79259C16.0561 8.08012 16.0949 8.58516 15.8074 8.92062L13.4074 11.7206C13.1895 11.9748 12.8364 12.0664 12.5224 11.9503C12.2084 11.8341 12 11.5348 12 11.2V0.799999C12 0.358172 12.3582 0 12.8 0ZM0 5.99999C0 5.55817 0.358172 5.2 0.799999 5.2H7.99999C8.44182 5.2 8.79999 5.55817 8.79999 5.99999C8.79999 6.44182 8.44182 6.79999 7.99999 6.79999H0.799999C0.358172 6.79999 0 6.44182 0 5.99999ZM0 11.2C0 10.7582 0.358172 10.4 0.799999 10.4H7.99999C8.44182 10.4 8.79999 10.7582 8.79999 11.2C8.79999 11.6418 8.44182 12 7.99999 12H0.799999C0.358172 12 0 11.6418 0 11.2Z" />
</svg>
