<svg width="24" height="24" viewBox="0 0 24 24" fill="none" xmlns="http://www.w3.org/2000/svg">
<path fill-rule="evenodd" clip-rule="evenodd" d="M8.54683 4.04127C8.96598 3.90155 9.41902 4.12808 9.55874 4.54722L9.95873 5.74719C9.98669 5.83108 9.99998 5.91633 10 6.00015C11.1999 6.00015 12.3998 6.00015 13.5997 6.00015C14.0415 6.00015 14.3997 6.35831 14.3997 6.80013C14.3997 7.24194 14.0415 7.60011 13.5997 7.60011H12.6183C12.5181 7.95125 12.369 8.42666 12.1651 8.95826C11.7486 10.0445 11.0747 11.4435 10.0659 12.473L10.0628 12.4761C10.0508 12.4883 10.0389 12.5004 10.0268 12.5126C10.7399 12.9809 11.5551 13.4082 12.2672 13.7472C12.7287 13.9668 13.1361 14.1443 13.4275 14.2667C13.5796 14.3305 13.7321 14.3936 13.886 14.453C13.933 14.471 13.9774 14.493 14.0188 14.5184L15.2673 11.6781C15.395 11.3876 15.6823 11.2 15.9996 11.2C16.317 11.2 16.6043 11.3876 16.732 11.6781L19.0153 16.8726L19.9271 18.8672C20.1108 19.269 19.934 19.7437 19.5322 19.9274C19.1303 20.1111 18.6557 19.9342 18.472 19.5324L17.7714 17.9999H14.2279L13.5273 19.5324C13.3436 19.9342 12.8689 20.1111 12.4671 19.9274C12.0653 19.7437 11.8885 19.269 12.0722 18.8672L12.984 16.8726L13.381 15.9695C13.3583 15.963 13.3357 15.9555 13.3133 15.9469C13.1437 15.8817 12.9757 15.8122 12.8081 15.7419C12.4989 15.6121 12.0681 15.4244 11.5796 15.1919C10.7349 14.7898 9.68372 14.238 8.78858 13.6046C8.14078 14.1134 7.4739 14.5612 6.90004 14.9197C6.41029 15.2257 5.97829 15.4727 5.66789 15.6438C5.50084 15.7358 5.33298 15.8266 5.16284 15.9128L5.15978 15.9144C4.76506 16.1129 4.28368 15.954 4.0852 15.5593C3.88674 15.1646 4.04576 14.6838 4.44038 14.4853L4.44121 14.4849C4.9932 14.2051 5.52767 13.8905 6.05234 13.5628C6.52942 13.2647 7.05428 12.9137 7.5643 12.5282C6.98869 11.8838 6.5643 11.1768 6.26686 10.5858C6.04965 10.1542 5.89276 9.76965 5.78954 9.49113C5.73782 9.35156 5.69926 9.23777 5.67309 9.157C5.65856 9.11218 5.64436 9.06723 5.63127 9.02196L5.63081 9.02036C5.50939 8.59556 5.75521 8.15234 6.18002 8.03092C6.60441 7.90962 7.04676 8.15497 7.16869 8.57901L7.16894 8.5799L7.16933 8.58118C7.20514 8.70055 7.2465 8.81831 7.28979 8.93514C7.3767 9.16966 7.5106 9.4981 7.69602 9.86651C7.96377 10.3985 8.32444 10.9846 8.78409 11.4919C8.83124 11.4459 8.87762 11.3996 8.92314 11.3531L8.92587 11.3504C9.70511 10.5539 10.283 9.39793 10.6712 8.38541C10.78 8.10184 10.8715 7.83563 10.9469 7.60011H4.79991C4.35809 7.60011 3.99993 7.24194 3.99993 6.80013C3.99993 6.35831 4.35809 6.00015 4.79991 6.00015H8.35654L8.04088 5.05317C7.90117 4.63403 8.12769 4.18098 8.54683 4.04127ZM14.9395 16.3999H17.0598L15.9996 13.988L14.9395 16.3999Z" />
</svg>
