<svg width="15" height="16" viewBox="0 0 15 16" fill="none" xmlns="http://www.w3.org/2000/svg">
	<path fill-rule="evenodd" clip-rule="evenodd" d="M7.27273 1.45455C6.06774 1.45455 5.09091 2.43138 5.09091 3.63636C5.09091 4.84135 6.06774 5.81818 7.27273 5.81818C8.47771 5.81818 9.45455 4.84135 9.45455 3.63636C9.45455 2.43138 8.47771 1.45455 7.27273 1.45455ZM3.63636 3.63636C3.63636 1.62806 5.26442 0 7.27273 0C9.28104 0 10.9091 1.62806 10.9091 3.63636C10.9091 5.64467 9.28104 7.27273 7.27273 7.27273C5.26442 7.27273 3.63636 5.64467 3.63636 3.63636ZM0 15.2727C0 11.2561 3.25612 8 7.27273 8C11.2893 8 14.5455 11.2561 14.5455 15.2727C14.5455 15.6744 14.2198 16 13.8182 16C13.4165 16 13.0909 15.6744 13.0909 15.2727C13.0909 12.0594 10.486 9.45455 7.27273 9.45455C4.05944 9.45455 1.45455 12.0594 1.45455 15.2727C1.45455 15.6744 1.12893 16 0.727273 16C0.325611 16 0 15.6744 0 15.2727Z" />
</svg>
