<svg width="24" height="24" viewBox="0 0 24 24" fill="none" xmlns="http://www.w3.org/2000/svg">
<path fill-rule="evenodd" clip-rule="evenodd" d="M12 5.45455C11.3975 5.45455 10.9091 5.94296 10.9091 6.54545C10.9091 7.14795 11.3975 7.63636 12 7.63636C12.6025 7.63636 13.0909 7.14795 13.0909 6.54545C13.0909 5.94296 12.6025 5.45455 12 5.45455ZM13.9997 8.12054C14.3415 7.68723 14.5455 7.14016 14.5455 6.54545C14.5455 5.13964 13.4058 4 12 4C10.5942 4 9.45455 5.13964 9.45455 6.54545C9.45455 7.14016 9.65849 7.68723 10.0003 8.12054C8.7755 8.75315 7.88873 9.94871 7.68224 11.365C6.60729 11.6629 5.81818 12.6484 5.81818 13.8182C5.81818 14.4129 6.02212 14.96 6.36389 15.3933C4.95984 16.1185 4 17.5835 4 19.2727C4 19.6744 4.32561 20 4.72727 20C5.12893 20 5.45455 19.6744 5.45455 19.2727C5.45455 17.6661 6.75699 16.3636 8.36364 16.3636C9.97027 16.3636 11.2727 17.6661 11.2727 19.2727C11.2727 19.6744 11.5983 20 12 20C12.4017 20 12.7273 19.6744 12.7273 19.2727C12.7273 17.6661 14.0297 16.3636 15.6364 16.3636C17.243 16.3636 18.5455 17.6661 18.5455 19.2727C18.5455 19.6744 18.8711 20 19.2727 20C19.6744 20 20 19.6744 20 19.2727C20 17.5835 19.0401 16.1185 17.6361 15.3933C17.9779 14.96 18.1818 14.4129 18.1818 13.8182C18.1818 12.6484 17.3927 11.6629 16.3178 11.365C16.1113 9.94871 15.2245 8.75315 13.9997 8.12054ZM14.8466 11.3976C14.5692 10.08 13.4001 9.09091 12 9.09091C10.5999 9.09091 9.43079 10.08 9.15336 11.3976C10.1726 11.7299 10.9091 12.688 10.9091 13.8182C10.9091 14.4129 10.7051 14.96 10.3634 15.3933C11.0259 15.7355 11.5895 16.2424 12 16.8598C12.4105 16.2424 12.9741 15.7355 13.6366 15.3933C13.2949 14.96 13.0909 14.4129 13.0909 13.8182C13.0909 12.688 13.8274 11.7299 14.8466 11.3976ZM15.6364 14.9091C16.2389 14.9091 16.7273 14.4207 16.7273 13.8182C16.7273 13.2157 16.2389 12.7273 15.6364 12.7273C15.0339 12.7273 14.5455 13.2157 14.5455 13.8182C14.5455 14.4207 15.0339 14.9091 15.6364 14.9091ZM8.36364 14.9091C8.96613 14.9091 9.45455 14.4207 9.45455 13.8182C9.45455 13.2157 8.96613 12.7273 8.36364 12.7273C7.76114 12.7273 7.27273 13.2157 7.27273 13.8182C7.27273 14.4207 7.76114 14.9091 8.36364 14.9091Z" />
</svg>
