<svg width="24" height="24" viewBox="0 0 24 24" fill="none" xmlns="http://www.w3.org/2000/svg">
<path d="M8.11117 20C7.68161 20 7.33339 19.6589 7.33339 19.2381C7.33339 18.8474 7.63365 18.5253 8.02046 18.4813L8.11117 18.4762H8.88894V18.0952C8.88894 17.6745 9.23716 17.3333 9.66671 17.3333C10.0656 17.3333 10.3943 17.6275 10.4392 18.0064L10.4445 18.0952V18.4762H14.2968L17.208 14.0404L11.8655 9.38439L10.342 11.9971L10.3148 12.0404L10.2681 12.1023L10.2167 12.1578C10.1887 12.1852 10.1591 12.2101 10.1282 12.2325L10.0501 12.2822L9.96891 12.3211L9.88556 12.3502L9.81349 12.3673L9.70954 12.3798L9.63486 12.3805L9.51222 12.366L9.43655 12.347L9.35253 12.3163L9.24815 12.2614L9.17336 12.2082L9.11674 12.1578L5.22788 8.34829C4.88791 8.01525 4.93825 7.4708 5.31276 7.19867L5.39197 7.14802L10.8364 4.1004C11.1104 3.94699 11.4483 3.97238 11.694 4.1561L11.7722 4.22317L13.3278 5.74698C13.4391 5.86439 13.5192 6.00393 13.5455 6.16347C13.5687 6.30199 13.5529 6.44786 13.4936 6.58405L13.4531 6.66374L12.6549 8.03125L18.7392 13.3356C19.0015 13.5642 19.0722 13.933 18.9227 14.2359L18.8764 14.3168L16.1463 18.4762H17.8333C18.2629 18.4762 18.6111 18.8173 18.6111 19.2381C18.6111 19.6288 18.3108 19.9509 17.924 19.9949L17.8333 20H8.11117ZM11.0916 5.71202L7.04795 7.97563L9.49638 10.3741L11.8071 6.41297L11.0916 5.71202Z" />
</svg>
