<svg width="24" height="24" viewBox="0 0 24 24" fill="none" xmlns="http://www.w3.org/2000/svg">
<path fill-rule="evenodd" clip-rule="evenodd" d="M10.9826 9.00752C10.7341 8.85388 10.4182 8.843 10.1589 8.97914C9.89966 9.11528 9.73836 9.37671 9.73836 9.66082V14.3207C9.73836 14.6048 9.89966 14.8663 10.1589 15.0024C10.4182 15.1385 10.7341 15.1277 10.9826 14.974L14.7512 12.6441C14.9823 12.5012 15.122 12.255 15.122 11.9908C15.122 11.7265 14.9823 11.4804 14.7512 11.3375L10.9826 9.00752ZM12.8211 11.9908L11.3535 12.8982V11.0834L12.8211 11.9908Z" />
<path fill-rule="evenodd" clip-rule="evenodd" d="M17.7083 5.67829C14.2504 5.3141 9.74962 5.3141 6.29169 5.67829L6.28768 5.67873C5.78541 5.73407 5.33643 5.97566 5.00493 6.27927C4.6733 6.583 4.39892 7.0041 4.31877 7.48886L4.31813 7.49275C3.89396 10.1447 3.89396 13.8553 4.31813 16.5073L4.31876 16.5111C4.3989 16.9959 4.6733 17.417 5.00493 17.7208C5.33644 18.0244 5.78543 18.266 6.28772 18.3213L6.29169 18.3217C9.74962 18.6859 14.2504 18.6859 17.7083 18.3217L17.7122 18.3213C18.2146 18.266 18.6636 18.0244 18.9952 17.7208C19.3268 17.417 19.6012 16.9958 19.6813 16.511L19.6819 16.5073C20.106 13.8553 20.106 10.1447 19.6819 7.49275L19.6813 7.48904C19.6012 7.00405 19.3266 6.58289 18.995 6.2792C18.6635 5.97564 18.2145 5.73409 17.7124 5.67873L17.7083 5.67829ZM6.11874 7.40413C6.24712 7.28654 6.38205 7.2322 6.47016 7.22209C9.80947 6.87058 14.1905 6.87058 17.5298 7.22209C17.6179 7.23221 17.7529 7.28657 17.8813 7.40417C18.0096 7.52166 18.0717 7.64752 18.0859 7.73132C18.4846 10.2252 18.4846 13.7748 18.0859 16.2686C18.0716 16.3526 18.0095 16.4785 17.8813 16.5959C17.753 16.7135 17.6181 16.7678 17.53 16.7779C14.1906 17.1294 9.80949 17.1294 6.47012 16.7779C6.38205 16.7678 6.24713 16.7135 6.11873 16.5959C5.99048 16.4784 5.92836 16.3525 5.91405 16.2686C5.51545 13.7748 5.51545 10.2253 5.91405 7.73148C5.92837 7.64749 5.9905 7.52158 6.11874 7.40413Z" />
</svg>
