<?xml version="1.0" standalone="no"?>
<!DOCTYPE svg PUBLIC "-//W3C//DTD SVG 20010904//EN">
<svg version="1.0" xmlns="http://www.w3.org/2000/svg"
 width="512.000000pt" height="512.000000pt" viewBox="0 0 512.000000 512.000000"
 preserveAspectRatio="xMidYMid meet">
<metadata>
Created by potrace 1.14, written by Peter Selinger 2001-2017
</metadata>
<g transform="translate(0.000000,512.000000) scale(0.100000,-0.100000)"
fill="#000000" stroke="none">
<path d="M3640 5117 c-3 -3 -25 -8 -50 -12 -64 -9 -196 -76 -258 -131 -101
-88 -171 -207 -196 -328 -9 -43 -13 -159 -11 -401 2 -321 3 -344 24 -408 53
-163 157 -285 307 -358 173 -84 365 -84 532 0 196 99 331 312 328 517 -1 36 3
64 9 65 6 0 146 1 312 1 326 1 352 4 405 55 80 76 86 194 13 276 -59 66 -67
67 -420 67 l-315 0 -1 43 c-2 127 -30 232 -86 324 -86 141 -225 243 -384 279
-36 8 -203 17 -209 11z m192 -433 c23 -16 52 -49 64 -74 23 -44 23 -52 23
-340 1 -267 -1 -299 -18 -336 -23 -50 -54 -81 -104 -104 -44 -20 -121 -19
-164 4 -42 21 -90 79 -102 122 -6 21 -9 159 -8 334 l2 298 31 44 c68 92 187
115 276 52z"/>
<path d="M115 4441 c-145 -65 -152 -272 -12 -352 l42 -24 1215 0 1215 0 42 22
c142 76 138 276 -7 351 l-44 22 -1206 0 c-1147 0 -1207 -1 -1245 -19z"/>
<path d="M1864 3424 c-230 -38 -418 -213 -480 -445 -14 -54 -17 -116 -17 -399
-1 -376 2 -398 65 -528 48 -98 140 -197 231 -251 188 -110 443 -104 626 15
172 112 272 297 274 507 l0 47 1186 0 c747 0 1199 4 1221 10 70 20 127 92 135
170 9 89 -58 187 -142 209 -24 6 -459 10 -1211 10 -646 0 -1177 2 -1180 6 -4
4 -7 25 -8 48 -3 167 -53 300 -157 413 -140 153 -340 223 -543 188z m206 -422
c32 -19 52 -42 69 -76 25 -49 25 -53 25 -340 1 -356 -6 -384 -105 -440 -57
-33 -128 -35 -184 -5 -39 21 -50 31 -81 76 -25 35 -27 71 -28 378 l0 290 24
44 c58 104 178 135 280 73z"/>
<path d="M111 2744 c-147 -73 -145 -288 4 -355 36 -17 71 -19 369 -19 315 0
332 1 373 21 118 57 145 214 55 311 -60 64 -77 66 -434 66 -317 0 -318 0 -367
-24z"/>
<path d="M3606 1709 c-131 -31 -218 -80 -311 -173 -78 -79 -134 -179 -158
-282 -20 -85 -22 -659 -2 -759 32 -163 125 -298 267 -388 293 -185 679 -82
845 224 53 98 64 146 73 322 0 4 136 7 303 7 180 0 317 4 340 11 48 13 106 63
127 112 34 75 5 187 -59 234 -54 40 -84 43 -402 43 l-309 0 -1 38 c-4 193 -55
319 -178 443 -115 114 -240 169 -401 174 -52 2 -113 -1 -134 -6z m221 -422
c44 -32 69 -66 81 -112 6 -23 11 -159 10 -320 0 -257 -1 -284 -20 -327 -55
-128 -230 -154 -325 -47 -50 56 -52 69 -53 382 0 246 2 299 15 331 19 46 54
82 103 107 49 26 143 19 189 -14z"/>
<path d="M110 1036 c-57 -29 -99 -88 -106 -148 -10 -86 19 -144 96 -198 l35
-25 1227 0 1226 0 44 30 c129 89 114 281 -27 346 -38 18 -95 19 -1245 18
l-1205 0 -45 -23z"/>
</g>
</svg>
